<?xml version="1.0" encoding="utf-8"?>
<!-- Generator: Adobe Illustrator 24.1.3, SVG Export Plug-In . SVG Version: 6.00 Build 0)  -->
<svg version="1.1" id="Layer_1" xmlns="http://www.w3.org/2000/svg" xmlns:xlink="http://www.w3.org/1999/xlink" x="0px" y="0px"
	 viewBox="0 0 100 100" style="enable-background:new 0 0 100 100;" xml:space="preserve">
<g>
	<g>
		<path d="M61.06,9.06C61.06,6.83,59.23,5,57,5H43c-2.24,0-4.06,1.83-4.06,4.06v8.29h22.12V9.06z"/>
	</g>
	<g>
		<path d="M38.94,21.28v52.98c0,0,0,0.94,1.19,3.15C41.31,79.63,48.53,95,50,95c1.47,0,8.69-15.37,9.88-17.59
			c1.18-2.21,1.19-3.15,1.19-3.15V21.28H38.94z M41.6,68.67V27.33c0-0.8,0.66-1.46,1.46-1.46c0.8,0,1.46,0.66,1.46,1.46v41.33
			c0,0.8-0.66,1.46-1.46,1.46C42.25,70.13,41.6,69.47,41.6,68.67z M53.03,84.36h-6.06l-3.82-7.79h13.71L53.03,84.36z"/>
	</g>
</g>
</svg>
