<?xml version="1.0" encoding="utf-8"?>
<!-- Generator: Adobe Illustrator 24.1.3, SVG Export Plug-In . SVG Version: 6.00 Build 0)  -->
<svg version="1.1" id="Layer_1" xmlns="http://www.w3.org/2000/svg" xmlns:xlink="http://www.w3.org/1999/xlink" x="0px" y="0px"
	 viewBox="0 0 100 100" style="enable-background:new 0 0 100 100;" xml:space="preserve">
<g>
	<g>
		<g>
			<rect x="34.6" y="41.05" width="6.44" height="36.69"/>
		</g>
		<g>
			<rect x="58.91" y="41.05" width="6.44" height="36.69"/>
		</g>
		<g>
			<rect x="46.75" y="41.05" width="6.44" height="36.69"/>
		</g>
	</g>
	<g>
		<path d="M80.47,28.87v-4.05c0-1.16-0.95-2.11-2.11-2.11H65.35v-0.43c0-6.18-5.06-11.94-11.24-11.94h-7.99
			c-6.18,0-11.24,5.76-11.24,11.94v0.43h-12.9c-1.16,0-2.11,0.95-2.11,2.11v4.05H16.5v6.22h6.39v45.44c0,5.02,4.11,9.13,9.13,9.13
			h36.07c5.02,0,9.13-4.11,9.13-9.13V35.09h6.27v-6.22H80.47z M40.98,21.06c0-2.51,2.06-4.57,4.57-4.57h8.96
			c2.51,0,4.57,2.06,4.57,4.57v1.65H40.98V21.06z M71.62,80.07c0,2.13-1.74,3.86-3.86,3.86H32.24c-2.13,0-3.86-1.74-3.86-3.86V35.09
			h43.24V80.07z"/>
	</g>
</g>
</svg>
