<?xml version="1.0" encoding="utf-8"?>
<!-- Generator: Adobe Illustrator 24.1.3, SVG Export Plug-In . SVG Version: 6.00 Build 0)  -->
<svg version="1.1" id="Layer_1" xmlns="http://www.w3.org/2000/svg" xmlns:xlink="http://www.w3.org/1999/xlink" x="0px" y="0px"
	 viewBox="0 0 100 100" style="enable-background:new 0 0 100 100;" xml:space="preserve">
<style type="text/css">
	.st0{fill:#C12727;}
	.st1{fill:#DE322D;}
	.st2{fill:#DF332D;}
	.st3{fill:#E0332E;}
	.st4{fill:#E1342E;}
	.st5{fill:#E2352F;}
	.st6{fill:#E3362F;}
	.st7{fill:#E43730;}
	.st8{fill:#E53830;}
	.st9{fill:#E63831;}
	.st10{fill:#E73931;}
	.st11{fill:#E83A32;}
	.st12{fill:#E83B32;}
	.st13{fill:#E93C32;}
	.st14{fill:#EA3C33;}
	.st15{fill:#EB3D33;}
	.st16{fill:#EC3E34;}
	.st17{fill:#ED3F34;}
	.st18{fill:#EE4035;}
	.st19{fill:#EF4135;}
	.st20{fill:#F04136;}
	.st21{fill:#F14236;}
	.st22{fill:#F24337;}
</style>
<g>
	<path class="st0" d="M79.3,100H20.7C9.3,100,0,90.7,0,79.3V20.7C0,9.3,9.3,0,20.7,0h58.6C90.7,0,100,9.3,100,20.7v58.6
		C100,90.7,90.7,100,79.3,100z"/>
	<path class="st1" d="M79.2,99.9H20.8c-11.4,0-20.6-9.3-20.6-20.6V20.8C0.1,9.4,9.4,0.1,20.8,0.1h58.5c11.4,0,20.6,9.3,20.6,20.6
		v58.5C99.9,90.6,90.6,99.9,79.2,99.9z"/>
	<path class="st2" d="M79.2,99.7H20.8c-11.3,0-20.6-9.3-20.6-20.6V20.8C0.3,9.5,9.5,0.3,20.8,0.3h58.3c11.3,0,20.6,9.3,20.6,20.6
		v58.3C99.7,90.5,90.5,99.7,79.2,99.7z"/>
	<path class="st3" d="M79.1,99.6H20.9c-11.3,0-20.5-9.2-20.5-20.5V20.9C0.4,9.6,9.6,0.4,20.9,0.4h58.2c11.3,0,20.5,9.2,20.5,20.5
		v58.2C99.6,90.4,90.4,99.6,79.1,99.6z"/>
	<path class="st4" d="M79,99.5H21C9.7,99.5,0.5,90.3,0.5,79V21C0.5,9.7,9.7,0.5,21,0.5h58c11.3,0,20.5,9.2,20.5,20.5v58
		C99.5,90.3,90.3,99.5,79,99.5z"/>
	<path class="st5" d="M78.9,99.3H21.1c-11.2,0-20.4-9.2-20.4-20.4V21.1C0.7,9.8,9.8,0.7,21.1,0.7H79c11.2,0,20.4,9.2,20.4,20.4V79
		C99.3,90.2,90.2,99.3,78.9,99.3z"/>
	<path class="st6" d="M78.8,99.2H21.2C10,99.2,0.8,90,0.8,78.8V21.2C0.8,10,10,0.8,21.2,0.8h57.7C90,0.8,99.2,10,99.2,21.2v57.7
		C99.2,90,90,99.2,78.8,99.2z"/>
	<path class="st7" d="M78.8,99.1H21.2C10,99.1,0.9,90,0.9,78.8V21.2C0.9,10,10,0.9,21.2,0.9h57.5C89.9,0.9,99,10,99,21.2v57.5
		C99.1,89.9,89.9,99.1,78.8,99.1z"/>
	<path class="st8" d="M78.7,99H21.3C10.2,99,1,89.8,1,78.7V21.3C1,10.2,10.2,1,21.3,1h57.4C89.8,1,99,10.2,99,21.3v57.4
		C99,89.8,89.8,99,78.7,99z"/>
	<path class="st9" d="M78.6,98.8H21.4c-11.1,0-20.2-9.1-20.2-20.2V21.4c0-11.1,9.1-20.2,20.2-20.2h57.2c11.1,0,20.2,9.1,20.2,20.2
		v57.2C98.8,89.7,89.7,98.8,78.6,98.8z"/>
	<path class="st10" d="M78.5,98.7h-57c-11.1,0-20.1-9.1-20.1-20.1V21.5c0-11.1,9.1-20.1,20.1-20.1h57.1c11.1,0,20.1,9.1,20.1,20.1
		v57.1C98.7,89.6,89.6,98.7,78.5,98.7z"/>
	<path class="st11" d="M78.5,98.6h-57c-11.1,0-20.1-9-20.1-20.1v-57c0-11.1,9-20.1,20.1-20.1h56.9c11.1,0,20.1,9,20.1,20.1v56.9
		C98.6,89.5,89.5,98.6,78.5,98.6z"/>
	<path class="st12" d="M78.4,98.4H21.6c-11,0-20-9-20-20V21.6c0-11,9-20,20-20h56.8c11,0,20,9,20,20v56.8
		C98.4,89.4,89.4,98.4,78.4,98.4z"/>
	<path class="st13" d="M78.3,98.3H21.7c-11,0-20-9-20-20V21.7c0-11,9-20,20-20h56.6c11,0,20,9,20,20v56.6
		C98.3,89.3,89.3,98.3,78.3,98.3z"/>
	<path class="st14" d="M78.2,98.2H21.8c-11,0-19.9-9-19.9-19.9V21.8c0-11,9-19.9,19.9-19.9h56.5c11,0,19.9,9,19.9,19.9v56.5
		C98.2,89.2,89.2,98.2,78.2,98.2z"/>
	<path class="st15" d="M78.2,98H21.8C10.9,98,2,89.1,2,78.2V21.8C2,10.9,10.9,2,21.8,2h56.3C89.1,2,98,10.9,98,21.8v56.3
		C98,89.1,89.1,98,78.2,98z"/>
	<path class="st16" d="M78.1,97.9H21.9C11,97.9,2.1,89,2.1,78.1V21.9C2.1,11,11,2.1,21.9,2.1h56.2C89,2.1,97.9,11,97.9,21.9v56.2
		C97.9,89,89,97.9,78.1,97.9z"/>
	<path class="st17" d="M78,97.8H22C11.1,97.8,2.2,88.9,2.2,78V22C2.2,11.1,11.1,2.2,22,2.2h56c10.9,0,19.8,8.9,19.8,19.8v56
		C97.8,88.9,88.9,97.8,78,97.8z"/>
	<path class="st18" d="M77.9,97.6H22.1c-10.8,0-19.7-8.9-19.7-19.7V22.1c0-10.8,8.9-19.7,19.7-19.7H78c10.8,0,19.7,8.9,19.7,19.7V78
		C97.6,88.8,88.8,97.6,77.9,97.6z"/>
	<path class="st19" d="M77.8,97.5H22.2c-10.8,0-19.7-8.8-19.7-19.7V22.2c0-10.8,8.8-19.7,19.7-19.7h55.7c10.8,0,19.7,8.8,19.7,19.7
		v55.7C97.5,88.7,88.7,97.5,77.8,97.5z"/>
	<path class="st20" d="M77.8,97.4H22.2c-10.8,0-19.6-8.8-19.6-19.6V22.2c0-10.8,8.8-19.6,19.6-19.6h55.5c10.8,0,19.6,8.8,19.6,19.6
		v55.5C97.4,88.6,88.6,97.4,77.8,97.4z"/>
	<path class="st21" d="M77.7,97.2H22.3c-10.8,0-19.5-8.8-19.5-19.5V22.3c0-10.8,8.8-19.5,19.5-19.5h55.4c10.8,0,19.5,8.8,19.5,19.5
		v55.4C97.2,88.4,88.4,97.2,77.7,97.2z"/>
	<path class="st22" d="M77.6,97.1H22.4c-10.7,0-19.5-8.8-19.5-19.5V22.4c0-10.7,8.8-19.5,19.5-19.5h55.2c10.7,0,19.5,8.8,19.5,19.5
		v55.2C97.1,88.3,88.3,97.1,77.6,97.1z"/>
</g>
<g>
	<g>
		<path d="M69.1,27.9c4.1,0,5.4,1,7,3.6c1.5,2.5,6.5,10.3,6.5,10.3s7.1,0,9.4,0s4,1.3,4,3.3s-1.7,3.6-3.8,3.6s-10.9,0-12.6,0
			s-2.8-1.4-3.4-2.2s-3.8-5.7-4.1-6.2c-0.3-0.5-1.1-0.7-1.8,0.7s-6.9,11.9-6.9,11.9s8.2,5.7,10.4,7.2c2.3,1.5,3.1,3.3,3,5.4
			s-1.7,4.3-3.8,5c-2.1,0.7-14.9,4.8-17.3,5.4S52,74.3,52,73.3s-0.2-2.6,2.5-3.7s11-4.9,11-4.9s-9.5-5.2-12-6.6
			c-4-2.3-6.6-7.6-3.6-12.8s5.1-8.7,5.5-9.5s0.1-1.2-0.8-1.2c-0.8,0-6,0-6,0s-6.4,8.5-7.4,9.9s-3,3.5-5.3,2.1s-1.1-4,0.1-5.4
			c1.2-1.5,7.7-10.3,8.3-11.1s2.4-2.1,4.3-2.1S69.1,27.9,69.1,27.9z"/>
		<path d="M45.2,56c0.9-1.6,1.2-2,1.5-2s0.4,1.1,1.5,2.5s2.4,2.7,3.7,3.3s1.9,0.5,0.7,2C51.4,63.2,32.7,87.3,32.1,88
			c-0.6,0.7-1.6,1.2-3,1.1s-2.4-1.4-2.5-2.7C26.4,85.1,28,83,29,81.5C30,79.8,44.9,56.5,45.2,56z"/>
		<circle cx="74.2" cy="18.2" r="7.3"/>
		<g>
			<path d="M38.3,56.8H19.1c-0.9,0-1.5-0.7-1.5-1.5v-1.1c0-0.8,0.7-1.5,1.5-1.5h19.2c0.8,0,1.5,0.7,1.5,1.5v1.1
				C39.8,56.1,39.1,56.8,38.3,56.8z"/>
			<path d="M31.5,65.2H12.3c-0.9,0-1.5-0.7-1.5-1.5v-1.1c0-0.8,0.7-1.5,1.5-1.5h19.2c0.9,0,1.5,0.7,1.5,1.5v1.1
				C33,64.5,32.3,65.2,31.5,65.2z"/>
			<path d="M24.7,73.6H5.5c-0.8,0-1.5-0.7-1.5-1.5V71c0-0.8,0.7-1.5,1.5-1.5h19.2c0.9,0,1.5,0.7,1.5,1.5v1.1
				C26.2,72.9,25.5,73.6,24.7,73.6z"/>
		</g>
	</g>
</g>
</svg>
