<?xml version="1.0" encoding="utf-8"?>
<!-- Generator: Adobe Illustrator 24.1.3, SVG Export Plug-In . SVG Version: 6.00 Build 0)  -->
<svg version="1.1" id="Layer_1" xmlns="http://www.w3.org/2000/svg" xmlns:xlink="http://www.w3.org/1999/xlink" x="0px" y="0px"
	 viewBox="0 0 100 100" style="enable-background:new 0 0 100 100;" xml:space="preserve">
<style type="text/css">
	.st0{fill:#475993;}
</style>
<g>
	<path class="st0" d="M0,49.95c0-12.17,0-24.34,0-36.52C0,5.89,5.91-0.01,13.47-0.01c24.34,0,48.68,0,73.02,0
		c7.29,0,13.21,5.59,13.42,12.86c0.14,5.09,0.06,10.18,0.06,15.28c0,19.25,0.01,38.5,0,57.75c0,7.24-4.35,12.6-11.23,13.89
		c-0.84,0.16-1.72,0.19-2.58,0.2c-6.57,0.02-13.14-0.02-19.71,0.04c-1.13,0.01-1.45-0.28-1.44-1.43c0.06-11.05,0.07-22.1,0.05-33.15
		c0-0.99,0.25-1.29,1.26-1.27c3.51,0.06,7.03,0.03,10.54,0.02c1.91-0.01,2.58-0.64,2.82-2.63c0.41-3.43,0.82-6.87,1.22-10.3
		c0.21-1.85-0.69-2.89-2.62-2.9c-3.97-0.03-7.94-0.05-11.92,0.02c-1.06,0.02-1.39-0.27-1.37-1.35c0.07-3-0.01-6.01,0.03-9.01
		c0.06-4.39,1.86-6.31,6.27-6.58c2.13-0.13,4.27-0.04,6.41-0.07c1.99-0.04,2.68-0.73,2.69-2.67c0.01-3-0.01-6.01,0.01-9.01
		c0.01-1.25-0.54-2.24-1.79-2.23c-4.68,0.02-9.38-0.47-14.03,0.28c-8.21,1.32-13.72,7.15-14.8,15.42
		c-0.59,4.57-0.22,9.15-0.27,13.73c-0.01,1.2-0.31,1.55-1.52,1.51c-2.39-0.1-4.79-0.04-7.18-0.02c-1.99,0.02-2.81,0.79-2.81,2.78
		c0,3.61,0.05,7.23,0.12,10.84c0.03,1.45,0.82,2.19,2.34,2.21c2.65,0.03,5.3,0.04,7.94-0.01c0.85-0.02,1.13,0.22,1.13,1.1
		c-0.04,11.2-0.06,22.41-0.05,33.61c0,0.85-0.21,1.13-1.1,1.13c-11.76-0.03-23.53,0.07-35.29-0.07C5.57,99.84,0,93.9,0,86.31
		C0,74.19,0,62.07,0,49.95z"/>
</g>
</svg>
