<?xml version="1.0" encoding="utf-8"?>
<!-- Generator: Adobe Illustrator 24.1.3, SVG Export Plug-In . SVG Version: 6.00 Build 0)  -->
<svg version="1.1" id="Layer_1" xmlns="http://www.w3.org/2000/svg" xmlns:xlink="http://www.w3.org/1999/xlink" x="0px" y="0px"
	 viewBox="0 0 100 100" style="enable-background:new 0 0 100 100;" xml:space="preserve">
<style type="text/css">
	.st0{fill:#FFFFFF;}
	.st1{fill:#4989F3;}
	.st2{fill:#EA4D40;}
	.st3{fill:#FABF15;}
	.st4{fill:#EA5042;}
	.st5{fill:#EB5245;}
	.st6{fill:#EB5144;}
	.st7{fill:#3CAB5A;}
	.st8{fill:#3EAC5C;}
	.st9{fill:#FAC017;}
	.st10{fill:#4B8AF4;}
	.st11{fill:#4687F3;}
	.st12{fill:#3AAA58;}
	.st13{fill:#38A956;}
</style>
<g>
	<g>
		<g>
			<path class="st0" d="M85.66,100H14.34C6.45,100,0,93.55,0,85.66V14.34C0,6.45,6.45,0,14.34,0h71.33C93.55,0,100,6.45,100,14.34
				v71.33C100,93.55,93.55,100,85.66,100z"/>
		</g>
	</g>
	<g>
		<path class="st1" d="M76.23,42.59c2.67,0.07,5.34,0.15,8.02,0.22c1.15,1.49,0.11,2.75-0.49,3.99c-2.66,5.51-6.08,10.54-9.89,15.31
			c-0.75,0.93-1.47,2.05-2.99,1.47c-1.27-1.57,0.83-3.29-0.23-4.86c-4.68-1.13-9.42-1.03-14.16-1.03c-0.83,0-1.88,0.38-2.41-0.61
			c-0.5-0.93,0.05-1.8,0.69-2.39c3.87-3.54,6.46-8.17,10.11-11.89C68.66,42.74,72.44,42.66,76.23,42.59z"/>
		<path class="st2" d="M57.53,10.71c7.29,0.78,13.42,4.1,18.99,8.66c0.9,0.74,0.91,1.28,0.08,2.09c-3.08,3.02-6.12,6.07-9.15,9.14
			c-0.81,0.82-1.52,1.15-2.52,0.25c-3.06-2.75-6.86-3.92-10.74-4.9c-0.86-3.53,1.25-6.63,1.48-10.02
			C55.79,14.1,56,12.12,57.53,10.71z"/>
		<path class="st3" d="M15.24,67.95c-2.31-3.82-3.57-7.97-3.84-12.42c-0.1-0.2-0.23-0.4-0.23-0.61c-0.02-8.45-1.06-7.81,6.65-9.01
			c2.29-0.36,4.47-1.16,6.65-1.98c1.06-0.4,2.57-1.29,3.05,0.86c-0.05,0.43-0.1,0.86-0.15,1.29c-0.39,2.65-0.4,5.3,0,7.95
			c0.28,1.29,0.56,2.58,0.84,3.88C24.56,62.11,20.27,65.51,15.24,67.95z"/>
		<path class="st4" d="M57.53,10.71c-1,5.11-1.62,10.29-3.34,15.24c-6.48-0.37-12.5,0.93-17.82,4.83c-1.67,0.08-1.12-1.23-0.78-1.72
			c3.62-5.31,5.65-11.22,6.91-17.46c0.09-0.43,0.58-0.64,0.99-0.83C48.16,9.75,52.84,9.54,57.53,10.71z"/>
		<path class="st5" d="M15.32,32.05c4.55-9.71,12.13-16.03,22.1-19.66c1.4,1.56,0.42,3.18-0.06,4.66
			c-2.29,7.02-6.11,12.92-12.8,16.57c-1.45,0.79-2.75,1.83-4.22,2.59C17.82,35.84,15.86,34.81,15.32,32.05z"/>
		<path class="st6" d="M20.11,36.08c1.38-2.5,4.19-3.09,6.28-4.62c6.52-4.76,9.89-11.25,11.02-19.07c1.93-0.87,3.96-1.39,6.06-1.61
			c-1.04,3.03-1.16,6.26-2.29,9.29c-1.06,2.83-2.48,5.43-4.09,7.96c-0.51,0.81-1.92,1.47-0.73,2.76c-3.59,3.15-6.1,7.07-8.12,11.35
			C24.47,41.55,21.97,39.26,20.11,36.08z"/>
		<path class="st7" d="M28.1,82.86c-1.09-0.71-2.19-1.43-3.28-2.14c-2-2.48-4.77-4.3-6.24-7.24c0.97-1.27,2.48-1.31,3.85-1.66
			c3.21-0.81,6.41-1.68,9.55-2.77c1.11-0.39,2.22-1.15,3.45-0.3c3.57,1.93,6.82,4.6,11.14,4.77c0.44,0,0.6,0.22,0.47,0.64
			c-0.83,1.52-2.14,2.53-3.66,3.26C38.48,79.75,33.39,81.6,28.1,82.86z"/>
		<path class="st8" d="M35.43,68.74c-5.49,2.04-11.04,3.86-16.85,4.74c-1.51-1.6-2.66-3.42-3.34-5.53
			c4.32-3.35,8.65-6.7,12.98-10.05C30.06,61.88,32.53,65.45,35.43,68.74z"/>
		<path class="st9" d="M20.11,36.08c2.72,2.01,5.09,4.49,8.14,6.05c-0.09,0.93-0.04,1.89-0.73,2.65c-0.83-1.19-1.74-0.55-2.63-0.12
			c-3.22,1.59-6.64,2.47-10.2,2.68c-2.33,0.14-3.47,1.05-3.27,3.51c0.13,1.55-0.01,3.11-0.02,4.67c-1.56-8.3-0.16-16.11,3.92-23.48
			C16.57,33.82,18.45,34.82,20.11,36.08z"/>
		<path class="st10" d="M72.21,58.08c-2.45,0.03-4.89,0.05-7.34,0.08c-3.86-0.04-7.73-0.16-11.59-0.08
			c-1.84,0.04-2.54-0.5-2.47-2.42c0.13-3.53,0.13-7.07,0-10.6c-0.07-1.92,0.63-2.47,2.47-2.41c3.86,0.14,7.73,0.11,11.59,0.14
			c-1.98,4.67-5.38,8.26-8.87,11.8c-0.63,0.64-1.94,1.19-1.32,2.34c0.46,0.86,1.62,0.42,2.47,0.42c3.99,0.04,7.98-0.01,11.97,0.03
			C70.18,57.41,71.37,57.02,72.21,58.08z"/>
		<path class="st9" d="M27.38,54.02c-0.92-2.65-0.91-5.3,0-7.95C27.37,48.72,27.37,51.37,27.38,54.02z"/>
		<path class="st11" d="M64.44,70.53c2.6-1.97,4.61-4.46,6.42-7.14c2.76-0.76,3.57-3.43,4.98-5.39c3.41-4.7,6.97-9.38,8.4-15.19
			c4.28-0.22,4.5-0.23,4.86,5.19c0.83,12.57-2.39,23.74-11.98,32.52c-3.4-1.21-5.66-4.08-8.66-5.87
			C67.3,73.1,65.12,72.55,64.44,70.53z"/>
		<path class="st12" d="M64.44,70.53c1.54,1.07,3.25,1.93,4.3,3.59c-0.37,1.65-1.68,2.56-2.87,3.55c-4.64,3.84-9.61,7.16-15.09,9.71
			c-1.1,0.51-2.16,1.09-3.13,1.88c1.09-0.38,2.11-0.99,2.51,0.72c-8.1-0.05-15.49-2.3-22.06-7.13c2.4-2.17,5.61-2.34,8.45-3.41
			c3.68-1.4,7.25-2.94,10.37-5.4C53.09,74.52,59.01,73.73,64.44,70.53z"/>
		<path class="st13" d="M50.16,89.98c-0.72-0.94-1.94-0.22-3.38-1.24c8.02-4.2,15.63-8.51,21.97-14.62
			c3.03,1.82,5.88,3.88,8.37,6.41c-5.86,5.37-12.7,8.48-20.67,8.98c-1.59,0.61-3.31-0.11-4.9,0.48
			C51.08,89.98,50.62,89.98,50.16,89.98z"/>
		<path class="st12" d="M51.54,89.99c1.54-1.07,3.26-0.38,4.9-0.48C54.87,90.31,53.2,90.06,51.54,89.99z"/>
	</g>
</g>
</svg>
