<?xml version="1.0" encoding="utf-8"?>
<!-- Generator: Adobe Illustrator 24.1.3, SVG Export Plug-In . SVG Version: 6.00 Build 0)  -->
<svg version="1.1" id="Layer_1" xmlns="http://www.w3.org/2000/svg" xmlns:xlink="http://www.w3.org/1999/xlink" x="0px" y="0px"
	 viewBox="0 0 100 100" style="enable-background:new 0 0 100 100;" xml:space="preserve">
<style type="text/css">
	.st0{fill:#FFFFFF;}
	.st1{fill:#F24337;}
	.st2{fill:#E54B1A;}
	.st3{fill:#FD6F02;}
	.st4{fill:#03887A;}
	.st5{fill:#2496F1;}
</style>
<g>
	<g>
		<path class="st0" d="M82.89,97H17.11C9.35,97,3,90.65,3,82.89V17.11C3,9.35,9.35,3,17.11,3h65.77C90.65,3,97,9.35,97,17.11v65.77
			C97,90.65,90.65,97,82.89,97z"/>
	</g>
	<g>
		<path class="st1" d="M73.1,18.12c2.27,0,4.55,0,6.82,0c1.02,0,1.62,0.56,1.62,1.58c0.02,4.64,0.02,9.28,0.04,13.92
			c0,0.67-0.29,1.17-0.89,1.42c-0.61,0.25-1.17,0.1-1.64-0.37c-1.27-1.26-2.56-2.5-3.79-3.8c-0.41-0.44-0.62-0.34-0.99,0.03
			c-5.49,5.44-10.99,10.87-16.49,16.3c-0.98,0.97-1.76,0.92-2.63-0.17c-4.1-5.15-8.2-10.3-12.3-15.45
			c-0.59-0.74-0.59-0.74-1.34-0.14c-5.79,4.64-11.58,9.27-17.37,13.91c-1.08,0.86-1.75,0.79-2.59-0.28c-0.87-1.11-1.75-2.2-2.63-3.3
			c-0.74-0.94-0.67-1.66,0.24-2.39c7.67-6.14,15.35-12.27,23.02-18.41c0.94-0.75,1.63-0.68,2.38,0.27
			c4.01,5.04,8.03,10.07,12.02,15.12c0.38,0.48,0.59,0.49,1.02,0.06c3.69-3.69,7.4-7.37,11.12-11.02c0.41-0.4,0.4-0.61,0-0.99
			c-1.22-1.17-2.39-2.4-3.61-3.57c-0.53-0.51-0.83-1.06-0.54-1.78c0.3-0.76,0.94-0.93,1.69-0.92c2.27,0.01,4.55,0.01,6.82,0.01
			C73.1,18.14,73.1,18.13,73.1,18.12z"/>
		<path class="st2" d="M45.44,60.84c0,6.41,0,12.82,0,19.24c0,1.35-0.46,1.8-1.8,1.8c-1.72,0-3.45,0-5.17,0
			c-1.06,0-1.64-0.58-1.64-1.63c0-12.97,0-25.93,0-38.9c0-1.1,0.59-1.66,1.69-1.67c1.7-0.01,3.4,0,5.1,0c1.34,0,1.82,0.47,1.82,1.79
			C45.44,47.92,45.44,54.38,45.44,60.84z"/>
		<path class="st3" d="M77.3,60.76c0,6.43,0,12.86,0,19.3c0,1.38-0.44,1.82-1.84,1.82c-1.65,0-3.3,0-4.95,0
			c-1.28,0-1.82-0.54-1.82-1.82c0-11.72,0-23.43,0-35.15c0-1.2-0.01-2.39,0-3.59c0.01-1.05,0.6-1.65,1.63-1.65
			c1.75-0.01,3.49,0,5.24,0c1.24,0,1.74,0.49,1.74,1.72C77.3,47.84,77.3,54.3,77.3,60.76z"/>
		<path class="st4" d="M20.9,66.79c0-4.42,0-8.85,0-13.27c0-1.43,0.48-1.91,1.89-1.91c1.65,0,3.3,0,4.95,0
			c1.28,0,1.78,0.5,1.78,1.79c0,8.9,0,17.8,0,26.69c0,1.3-0.48,1.78-1.76,1.78c-1.67,0-3.35,0-5.02,0c-1.34,0-1.83-0.48-1.83-1.81
			C20.9,75.64,20.9,71.22,20.9,66.79z"/>
		<path class="st5" d="M61.38,67.01c0,4.35,0,8.71,0,13.06c0,1.34-0.47,1.81-1.81,1.81c-1.7,0-3.4,0-5.09,0
			c-1.15,0-1.71-0.51-1.71-1.63c-0.01-8.83-0.01-17.65,0-26.48c0-1.1,0.55-1.63,1.64-1.63c1.77-0.01,3.54-0.01,5.31,0
			c1.15,0.01,1.66,0.51,1.66,1.67C61.39,58.2,61.38,62.61,61.38,67.01z"/>
	</g>
</g>
</svg>
