<?xml version="1.0" encoding="utf-8"?>
<!-- Generator: Adobe Illustrator 24.1.3, SVG Export Plug-In . SVG Version: 6.00 Build 0)  -->
<svg version="1.1" id="Layer_1" xmlns="http://www.w3.org/2000/svg" xmlns:xlink="http://www.w3.org/1999/xlink" x="0px" y="0px"
	 viewBox="0 0 600 517" style="enable-background:new 0 0 600 517;" xml:space="preserve">
<style type="text/css">
	.st0{fill:#EFEFEF;}
	.st1{fill:none;stroke:#000000;stroke-width:0.8126;stroke-miterlimit:10;}
	.st2{clip-path:url(#SVGID_2_);fill:url(#SVGID_3_);}
	.st3{clip-path:url(#SVGID_5_);fill:url(#SVGID_6_);}
	.st4{fill:none;stroke:#CC0000;stroke-width:3.2504;stroke-miterlimit:10;}
	.st5{fill:#CC0000;}
	.st6{fill:none;stroke:#CC0000;stroke-width:3.2504;stroke-miterlimit:10;stroke-dasharray:1.9771,1.9771;}
</style>
<g>
	<g>
		<rect class="st0" width="600" height="517.2"/>
	</g>
	<g>
		<g>
			<g>
				<path d="M503.3,53.63v395.91H107.39V53.63H503.3 M504.11,52.82H106.58v397.53h397.53V52.82L504.11,52.82z"/>
			</g>
			<line class="st1" x1="106.58" y1="384.09" x2="504.11" y2="384.09"/>
			<line class="st1" x1="106.58" y1="317.84" x2="504.11" y2="317.84"/>
			<line class="st1" x1="106.58" y1="251.58" x2="504.11" y2="251.58"/>
			<line class="st1" x1="106.58" y1="185.33" x2="504.11" y2="185.33"/>
			<line class="st1" x1="106.58" y1="119.07" x2="504.11" y2="119.07"/>
			<line class="st1" x1="437.86" y1="52.82" x2="437.86" y2="450.35"/>
			<line class="st1" x1="371.6" y1="52.82" x2="371.6" y2="450.35"/>
			<line class="st1" x1="305.35" y1="52.82" x2="305.35" y2="450.35"/>
			<line class="st1" x1="239.09" y1="52.82" x2="239.09" y2="450.35"/>
			<line class="st1" x1="172.84" y1="52.82" x2="172.84" y2="450.35"/>
		</g>
		<g>
			<defs>
				<path id="SVGID_1_" d="M58.05,100.61h-0.06l-3.67,1.98l-0.55-2.18l4.62-2.47h2.44v21.13h-2.76V100.61z M82.56,108.28
					c0,7.18-2.67,11.15-7.35,11.15c-4.13,0-6.92-3.87-6.99-10.86c0-7.09,3.06-10.99,7.35-10.99
					C80.03,97.59,82.56,101.55,82.56,108.28z M71.09,108.61c0,5.49,1.69,8.61,4.29,8.61c2.93,0,4.32-3.41,4.32-8.81
					c0-5.2-1.33-8.61-4.29-8.61C72.91,99.8,71.09,102.85,71.09,108.61z M99.23,108.28c0,7.18-2.67,11.15-7.35,11.15
					c-4.13,0-6.92-3.87-6.99-10.86c0-7.09,3.06-10.99,7.35-10.99C96.7,97.59,99.23,101.55,99.23,108.28z M87.76,108.61
					c0,5.49,1.69,8.61,4.29,8.61c2.93,0,4.32-3.41,4.32-8.81c0-5.2-1.33-8.61-4.29-8.61C89.58,99.8,87.76,102.85,87.76,108.61z
					 M70.18,183.31c0.62,0.06,1.33,0,2.31-0.1c1.66-0.23,3.22-0.91,4.42-2.05c1.4-1.27,2.41-3.12,2.8-5.62h-0.1
					c-1.17,1.43-2.86,2.28-4.97,2.28c-3.8,0-6.24-2.86-6.24-6.47c0-4,2.89-7.51,7.22-7.51c4.32,0,6.99,3.51,6.99,8.91
					c0,4.65-1.56,7.9-3.64,9.91c-1.63,1.59-3.87,2.57-6.14,2.83c-1.04,0.16-1.95,0.2-2.63,0.16V183.31z M71.22,171.16
					c0,2.63,1.59,4.49,4.06,4.49c1.92,0,3.41-0.94,4.16-2.21c0.16-0.26,0.26-0.59,0.26-1.04c0-3.61-1.33-6.37-4.32-6.37
					C72.94,166.02,71.22,168.17,71.22,171.16z M99.23,174.54c0,7.18-2.67,11.15-7.35,11.15c-4.13,0-6.92-3.87-6.99-10.86
					c0-7.09,3.06-10.99,7.35-10.99C96.7,163.84,99.23,167.81,99.23,174.54z M87.76,174.86c0,5.49,1.69,8.61,4.29,8.61
					c2.93,0,4.32-3.41,4.32-8.81c0-5.2-1.33-8.61-4.29-8.61C89.58,166.05,87.76,169.11,87.76,174.86z M68.26,246.22
					c0-2.67,1.59-4.55,4.19-5.66l-0.03-0.1c-2.34-1.11-3.35-2.93-3.35-4.75c0-3.35,2.83-5.62,6.53-5.62c4.1,0,6.14,2.57,6.14,5.2
					c0,1.79-0.88,3.71-3.48,4.94v0.1c2.63,1.04,4.26,2.89,4.26,5.46c0,3.67-3.15,6.14-7.18,6.14
					C70.92,251.94,68.26,249.31,68.26,246.22z M79.64,246.09c0-2.57-1.79-3.8-4.65-4.62c-2.47,0.72-3.8,2.34-3.8,4.36
					c-0.1,2.15,1.53,4.03,4.23,4.03C77.98,249.86,79.64,248.27,79.64,246.09z M71.77,235.53c0,2.11,1.59,3.25,4.03,3.9
					c1.82-0.62,3.22-1.92,3.22-3.84c0-1.69-1.01-3.45-3.58-3.45C73.07,232.15,71.77,233.71,71.77,235.53z M99.23,240.79
					c0,7.18-2.67,11.15-7.35,11.15c-4.13,0-6.92-3.87-6.99-10.86c0-7.09,3.06-10.99,7.35-10.99
					C96.7,230.1,99.23,234.06,99.23,240.79z M87.76,241.12c0,5.49,1.69,8.61,4.29,8.61c2.93,0,4.32-3.41,4.32-8.81
					c0-5.2-1.33-8.61-4.29-8.61C89.58,232.31,87.76,235.36,87.76,241.12z M82.24,296.71v1.89l-9.2,19.24h-2.96l9.17-18.69v-0.07
					H68.91v-2.37H82.24z M99.23,307.05c0,7.18-2.67,11.15-7.35,11.15c-4.13,0-6.92-3.87-6.99-10.86c0-7.09,3.06-10.99,7.35-10.99
					C96.7,296.35,99.23,300.32,99.23,307.05z M87.76,307.37c0,5.49,1.69,8.61,4.29,8.61c2.93,0,4.32-3.41,4.32-8.81
					c0-5.2-1.33-8.61-4.29-8.61C89.58,298.56,87.76,301.62,87.76,307.37z M80.58,364.98c-0.59-0.03-1.33,0-2.15,0.13
					c-4.49,0.75-6.86,4.03-7.35,7.51h0.1c1.01-1.33,2.76-2.44,5.1-2.44c3.74,0,6.37,2.7,6.37,6.83c0,3.87-2.63,7.44-7.02,7.44
					c-4.52,0-7.48-3.51-7.48-9c0-4.16,1.5-7.44,3.58-9.52c1.76-1.72,4.1-2.8,6.76-3.12c0.85-0.13,1.56-0.16,2.08-0.16V364.98z
					 M79.76,377.17c0-3.02-1.72-4.84-4.36-4.84c-1.72,0-3.32,1.07-4.1,2.6c-0.2,0.33-0.33,0.75-0.33,1.27
					c0.06,3.48,1.66,6.05,4.65,6.05C78.11,382.24,79.76,380.19,79.76,377.17z M99.23,373.3c0,7.18-2.67,11.15-7.35,11.15
					c-4.13,0-6.92-3.87-6.99-10.86c0-7.09,3.06-10.99,7.35-10.99C96.7,362.61,99.23,366.57,99.23,373.3z M87.76,373.63
					c0,5.49,1.69,8.61,4.29,8.61c2.93,0,4.32-3.41,4.32-8.81c0-5.2-1.33-8.61-4.29-8.61C89.58,364.82,87.76,367.87,87.76,373.63z
					 M81.13,431.63h-8.06l-0.81,5.43c0.49-0.07,0.94-0.13,1.72-0.13c1.63,0,3.25,0.36,4.55,1.14c1.66,0.94,3.02,2.76,3.02,5.43
					c0,4.13-3.28,7.22-7.87,7.22c-2.31,0-4.26-0.65-5.27-1.3l0.72-2.18c0.88,0.52,2.6,1.17,4.52,1.17c2.7,0,5.01-1.76,5.01-4.58
					c-0.03-2.73-1.85-4.68-6.08-4.68c-1.2,0-2.15,0.13-2.93,0.23l1.37-10.14h10.11V431.63z M99.23,439.56
					c0,7.18-2.67,11.15-7.35,11.15c-4.13,0-6.92-3.87-6.99-10.86c0-7.09,3.06-10.99,7.35-10.99
					C96.7,428.86,99.23,432.83,99.23,439.56z M87.76,439.88c0,5.49,1.69,8.61,4.29,8.61c2.93,0,4.32-3.41,4.32-8.81
					c0-5.2-1.33-8.61-4.29-8.61C89.58,431.07,87.76,434.13,87.76,439.88z M39.39,31.17c1.37-0.23,3.15-0.42,5.43-0.42
					c2.8,0,4.84,0.65,6.14,1.82c1.2,1.04,1.92,2.63,1.92,4.58c0,1.98-0.59,3.54-1.69,4.68c-1.5,1.59-3.93,2.41-6.7,2.41
					c-0.85,0-1.63-0.03-2.28-0.19v8.78h-2.83V31.17z M42.22,41.73c0.62,0.16,1.4,0.23,2.34,0.23c3.41,0,5.49-1.66,5.49-4.68
					c0-2.89-2.05-4.29-5.17-4.29c-1.24,0-2.18,0.1-2.67,0.23V41.73z M57.37,45.47c0.06,3.87,2.54,5.46,5.4,5.46
					c2.05,0,3.28-0.36,4.36-0.81l0.49,2.05c-1.01,0.46-2.73,0.98-5.23,0.98c-4.84,0-7.74-3.19-7.74-7.93s2.8-8.48,7.38-8.48
					c5.14,0,6.5,4.52,6.5,7.41c0,0.59-0.06,1.04-0.1,1.33H57.37z M65.76,43.42c0.03-1.82-0.75-4.65-3.97-4.65
					c-2.89,0-4.16,2.67-4.39,4.65H65.76z M71.67,49.89c0.85,0.55,2.34,1.14,3.77,1.14c2.08,0,3.06-1.04,3.06-2.34
					c0-1.37-0.81-2.11-2.93-2.89c-2.83-1.01-4.16-2.57-4.16-4.45c0-2.54,2.05-4.62,5.43-4.62c1.59,0,2.99,0.46,3.87,0.98l-0.72,2.08
					c-0.62-0.39-1.76-0.91-3.22-0.91c-1.69,0-2.63,0.98-2.63,2.15c0,1.3,0.94,1.89,2.99,2.67c2.73,1.04,4.13,2.41,4.13,4.75
					c0,2.76-2.15,4.71-5.88,4.71c-1.72,0-3.32-0.42-4.42-1.07L71.67,49.89z M99.17,44.82c0,5.82-4.03,8.35-7.83,8.35
					c-4.26,0-7.54-3.12-7.54-8.09c0-5.27,3.45-8.35,7.8-8.35C96.11,36.73,99.17,40.01,99.17,44.82z M86.69,44.98
					c0,3.45,1.98,6.05,4.78,6.05c2.73,0,4.78-2.57,4.78-6.11c0-2.67-1.33-6.05-4.71-6.05S86.69,41.99,86.69,44.98z"/>
			</defs>
			<clipPath id="SVGID_2_">
				<use xlink:href="#SVGID_1_"  style="overflow:visible;"/>
			</clipPath>
			
				<linearGradient id="SVGID_3_" gradientUnits="userSpaceOnUse" x1="-5895.9478" y1="1054.8628" x2="-5456.3208" y2="1054.8628" gradientTransform="matrix(0 -1 1 0 -988.4185 -5435.1069)">
				<stop  offset="8.356940e-07" style="stop-color:#00FFFF"/>
				<stop  offset="1" style="stop-color:#0000FF"/>
			</linearGradient>
			<polygon class="st2" points="103.97,21.21 103.97,460.84 28.92,460.84 28.92,21.21 			"/>
		</g>
		<g>
			<defs>
				<path id="SVGID_4_" d="M180.51,467.64h-0.07l-3.67,1.98l-0.55-2.18l4.62-2.47h2.44v21.13h-2.76V467.64z M240.56,486.1v-1.76
					l2.24-2.18c5.4-5.14,7.83-7.87,7.87-11.05c0-2.15-1.04-4.13-4.19-4.13c-1.92,0-3.51,0.98-4.49,1.79l-0.91-2.02
					c1.46-1.24,3.54-2.15,5.98-2.15c4.55,0,6.47,3.12,6.47,6.14c0,3.9-2.83,7.05-7.28,11.34l-1.69,1.56v0.07h9.49v2.37H240.56z
					 M307.49,482.81c0.81,0.52,2.7,1.33,4.68,1.33c3.67,0,4.81-2.34,4.78-4.1c-0.03-2.96-2.7-4.23-5.46-4.23h-1.59v-2.15h1.59
					c2.08,0,4.71-1.07,4.71-3.58c0-1.69-1.07-3.19-3.71-3.19c-1.69,0-3.32,0.75-4.23,1.4l-0.75-2.08c1.11-0.81,3.25-1.63,5.53-1.63
					c4.16,0,6.05,2.47,6.05,5.04c0,2.18-1.3,4.03-3.9,4.97v0.07c2.6,0.52,4.71,2.47,4.71,5.43c0,3.38-2.63,6.34-7.7,6.34
					c-2.37,0-4.45-0.75-5.49-1.43L307.49,482.81z M381.91,486.1v-5.75h-9.82v-1.89l9.43-13.49h3.09v13.13h2.96v2.24h-2.96v5.75
					H381.91z M381.91,478.1v-7.05c0-1.11,0.03-2.21,0.1-3.32h-0.1c-0.65,1.24-1.17,2.15-1.76,3.12l-5.17,7.18v0.07H381.91z
					 M451.93,467.38h-8.06l-0.81,5.43c0.49-0.07,0.94-0.13,1.72-0.13c1.63,0,3.25,0.36,4.55,1.14c1.66,0.94,3.02,2.76,3.02,5.43
					c0,4.13-3.28,7.22-7.87,7.22c-2.31,0-4.26-0.65-5.27-1.3l0.72-2.18c0.88,0.52,2.6,1.17,4.52,1.17c2.7,0,5.01-1.76,5.01-4.58
					c-0.03-2.73-1.85-4.68-6.08-4.68c-1.2,0-2.15,0.13-2.93,0.23l1.37-10.14h10.11V467.38z M506.58,464.48
					c1.72-0.26,3.77-0.46,6.01-0.46c4.06,0,6.96,0.94,8.87,2.73c1.95,1.79,3.09,4.32,3.09,7.87c0,3.58-1.11,6.5-3.15,8.52
					c-2.05,2.05-5.43,3.15-9.69,3.15c-2.02,0-3.71-0.1-5.14-0.26V464.48z M509.41,483.85c0.72,0.13,1.76,0.16,2.86,0.16
					c6.05,0,9.33-3.38,9.33-9.3c0.03-5.17-2.89-8.45-8.87-8.45c-1.46,0-2.57,0.13-3.32,0.29V483.85z M531.32,465.95
					c0.03,0.98-0.68,1.76-1.82,1.76c-1.01,0-1.72-0.78-1.72-1.76c0-1.01,0.75-1.79,1.79-1.79
					C530.64,464.16,531.32,464.94,531.32,465.95z M528.13,486.1v-15.73h2.86v15.73H528.13z M544.45,486.1l-0.23-1.98h-0.1
					c-0.88,1.24-2.57,2.34-4.81,2.34c-3.19,0-4.81-2.24-4.81-4.52c0-3.8,3.38-5.88,9.46-5.85v-0.33c0-1.3-0.36-3.64-3.58-3.64
					c-1.46,0-2.99,0.46-4.1,1.17l-0.65-1.89c1.3-0.85,3.19-1.4,5.17-1.4c4.81,0,5.98,3.28,5.98,6.44v5.88c0,1.37,0.07,2.7,0.26,3.77
					H544.45z M544.03,478.07c-3.12-0.06-6.66,0.49-6.66,3.54c0,1.85,1.24,2.73,2.7,2.73c2.05,0,3.35-1.3,3.8-2.63
					c0.1-0.29,0.16-0.62,0.16-0.91V478.07z M551.02,483.17c0.85,0.55,2.34,1.14,3.77,1.14c2.08,0,3.06-1.04,3.06-2.34
					c0-1.37-0.81-2.11-2.93-2.89c-2.83-1.01-4.16-2.57-4.16-4.45c0-2.54,2.05-4.62,5.43-4.62c1.59,0,2.99,0.46,3.87,0.98l-0.72,2.08
					c-0.62-0.39-1.76-0.91-3.22-0.91c-1.69,0-2.63,0.98-2.63,2.15c0,1.3,0.94,1.89,2.99,2.67c2.73,1.04,4.13,2.41,4.13,4.75
					c0,2.76-2.15,4.71-5.88,4.71c-1.72,0-3.32-0.42-4.42-1.07L551.02,483.17z"/>
			</defs>
			<clipPath id="SVGID_5_">
				<use xlink:href="#SVGID_4_"  style="overflow:visible;"/>
			</clipPath>
			<linearGradient id="SVGID_6_" gradientUnits="userSpaceOnUse" x1="159.9286" y1="475.9865" x2="584.6171" y2="475.9865">
				<stop  offset="4.178470e-07" style="stop-color:#F15A24"/>
				<stop  offset="1" style="stop-color:#FF0000"/>
			</linearGradient>
			<rect x="159.93" y="455.04" class="st3" width="424.69" height="41.9"/>
		</g>
		<g>
			<g>
				<polyline class="st4" points="172.84,264.95 239.09,274 305.35,286.21 371.6,309.04 419.03,297.2 				"/>
				<g>
					<polygon class="st5" points="413.09,311.09 415.14,298.18 407.26,287.73 437.86,292.51 					"/>
				</g>
			</g>
		</g>
		<g>
			<g>
				<line class="st4" x1="113.55" y1="264.95" x2="114.53" y2="264.95"/>
				<line class="st6" x1="116.5" y1="264.95" x2="170.87" y2="264.95"/>
				<line class="st4" x1="171.86" y1="264.95" x2="172.84" y2="264.95"/>
			</g>
		</g>
	</g>
</g>
</svg>
