<?xml version="1.0" encoding="utf-8"?>
<!-- Generator: Adobe Illustrator 24.1.3, SVG Export Plug-In . SVG Version: 6.00 Build 0)  -->
<svg version="1.1" id="Layer_1" xmlns="http://www.w3.org/2000/svg" xmlns:xlink="http://www.w3.org/1999/xlink" x="0px" y="0px"
	 viewBox="0 0 1080 434.91" style="enable-background:new 0 0 1080 434.91;" xml:space="preserve">
<style type="text/css">
	.st0{fill:#FFFFFF;stroke:#010101;stroke-width:1.0576;stroke-miterlimit:10;}
	.st1{fill:#F37021;}
	.st2{fill:#FFFFFF;stroke:#010101;stroke-width:3.1728;stroke-miterlimit:10;}
	.st3{fill:#010101;}
</style>
<g>
	<line class="st0" x1="41.65" y1="195.21" x2="988.21" y2="195.21"/>
	<path class="st1" d="M117.34,348.04H99.88c-2.04,0-3.7-1.67-3.7-3.7V189.92c0-2.04,1.67-3.7,3.7-3.7h17.45c2.04,0,3.7,1.67,3.7,3.7
		v154.41C121.04,346.37,119.37,348.04,117.34,348.04z"/>
	<path class="st1" d="M252.07,348.04h-16.31c-2.35,0-4.27-1.92-4.27-4.27V136.56c0-2.35,1.92-4.27,4.27-4.27h16.31
		c2.35,0,4.27,1.92,4.27,4.27v207.21C256.34,346.11,254.42,348.04,252.07,348.04z"/>
	<path class="st1" d="M387.28,348.04h-17.01c-2.16,0-3.92-1.77-3.92-3.92V170.05c0-2.16,1.77-3.92,3.92-3.92h17.01
		c2.16,0,3.92,1.77,3.92,3.92v174.06C391.2,346.27,389.43,348.04,387.28,348.04z"/>
	<path class="st1" d="M523.05,348.04H505.1c-1.9,0-3.45-1.55-3.45-3.45V210.82c0-1.9,1.55-3.45,3.45-3.45h17.95
		c1.9,0,3.45,1.55,3.45,3.45v133.76C526.5,346.48,524.95,348.04,523.05,348.04z"/>
	<path class="st1" d="M657.39,348.04h-16.37c-2.33,0-4.24-1.91-4.24-4.24V139.7c0-2.33,1.91-4.24,4.24-4.24h16.37
		c2.33,0,4.24,1.91,4.24,4.24v204.1C661.63,346.13,659.72,348.04,657.39,348.04z"/>
	<path class="st1" d="M793.12,348.04h-18.11c-1.85,0-3.37-1.52-3.37-3.37V217.09c0-1.85,1.52-3.37,3.37-3.37h18.11
		c1.85,0,3.37,1.52,3.37,3.37v127.57C796.49,346.52,794.97,348.04,793.12,348.04z"/>
	<path class="st1" d="M928.94,348.04h-19.15c-1.57,0-2.85-1.28-2.85-2.85v-90.53c0-1.57,1.28-2.85,2.85-2.85h19.15
		c1.57,0,2.85,1.28,2.85,2.85v90.53C931.79,346.75,930.51,348.04,928.94,348.04z"/>
	<line class="st0" x1="41.65" y1="44.91" x2="988.21" y2="44.91"/>
	<line class="st2" x1="45.89" y1="347.37" x2="983.98" y2="347.37"/>
	<g>
		<g>
			<path class="st3" d="M998.51,351.44c0-3.49,2.35-5.51,4.48-6.33c-2.16-1.06-3.43-2.78-3.43-5.24c0-3.82,2.7-6.6,7.79-6.6
				c4.65,0,7.5,2.73,7.5,6.55c0,2.65-1.44,4.38-3.44,5.14c2.33,0.76,4.41,3.08,4.41,6.37c0,4.72-3.66,7.56-8.8,7.56
				C1002.21,358.88,998.51,356.03,998.51,351.44z M1012.43,351.3c0-3.14-2-4.79-5.26-4.79c-3.62,0-5.27,2.07-5.27,4.77
				c0,2.77,1.94,4.86,5.29,4.86C1010.27,356.14,1012.43,354.49,1012.43,351.3z M1002.82,339.87c0,2.09,1.33,3.84,4.47,3.84
				c2.95,0,4.29-1.42,4.29-3.74c0-2.17-1.37-3.98-4.35-3.98C1004.09,335.98,1002.82,337.58,1002.82,339.87z"/>
			<path class="st3" d="M1019.88,339.59c0.39-3.04,2.55-6.33,7.82-6.33c5.13,0,7.46,3.12,7.46,6.41c0,3.02-1.79,4.55-3.3,5.12v0.09
				c2.22,0.71,4.36,2.54,4.36,6.24c0,3.93-2.44,7.77-8.58,7.77c-5.67,0-8.08-3.56-8.45-6.85h3.27c0.49,2.18,2.15,4.12,5.33,4.12
				c3.54,0,5.02-2.35,5.02-5.02c0-3.28-2.02-4.78-5.36-4.78h-1.77v-2.7h1.48c3.24,0,4.65-1.27,4.65-3.86c0-2.23-1.48-3.77-4.23-3.77
				c-2.96,0-4.06,1.6-4.52,3.57H1019.88z"/>
		</g>
	</g>
	<g>
		<g>
			<path class="st3" d="M998.71,200.21c0-3.49,2.35-5.51,4.48-6.33c-2.16-1.06-3.43-2.78-3.43-5.24c0-3.82,2.7-6.6,7.79-6.6
				c4.65,0,7.5,2.73,7.5,6.55c0,2.65-1.44,4.38-3.44,5.14c2.33,0.76,4.41,3.08,4.41,6.37c0,4.72-3.66,7.56-8.8,7.56
				C1002.41,207.65,998.71,204.8,998.71,200.21z M1012.64,200.07c0-3.14-2-4.79-5.26-4.79c-3.62,0-5.27,2.07-5.27,4.77
				c0,2.77,1.94,4.86,5.29,4.86C1010.48,204.91,1012.64,203.26,1012.64,200.07z M1003.03,188.64c0,2.09,1.33,3.84,4.47,3.84
				c2.95,0,4.29-1.42,4.29-3.74c0-2.17-1.37-3.98-4.35-3.98C1004.3,184.75,1003.03,186.35,1003.03,188.64z"/>
			<path class="st3" d="M1030.67,207.2v-6.37h-11.62v-2.98l11.25-15.37h3.52v15.52h3.2l-0.36,2.83h-2.84v6.37H1030.67z
				 M1030.67,191.77c0-1.91,0.02-4.35,0.09-5.96c-1,1.91-5.82,8.5-8.46,12.2h8.38V191.77z"/>
		</g>
	</g>
	<g>
		<g>
			<path class="st3" d="M998.54,48.98c0-3.49,2.35-5.51,4.48-6.33c-2.16-1.06-3.43-2.78-3.43-5.24c0-3.82,2.7-6.6,7.79-6.6
				c4.65,0,7.5,2.73,7.5,6.55c0,2.65-1.44,4.38-3.44,5.14c2.33,0.76,4.41,3.08,4.41,6.37c0,4.72-3.66,7.56-8.8,7.56
				C1002.24,56.42,998.54,53.57,998.54,48.98z M1012.47,48.84c0-3.14-2-4.79-5.26-4.79c-3.62,0-5.27,2.07-5.27,4.77
				c0,2.77,1.94,4.86,5.29,4.86C1010.31,53.69,1012.47,52.03,1012.47,48.84z M1002.86,37.41c0,2.09,1.33,3.84,4.47,3.84
				c2.95,0,4.29-1.42,4.29-3.74c0-2.17-1.37-3.98-4.35-3.98C1004.13,33.53,1002.86,35.12,1002.86,37.41z"/>
			<path class="st3" d="M1035.09,34.12h-10.34c-0.22,1.99-0.84,5.73-1.09,7.06c1.05-1.16,2.67-1.99,5.18-1.99
				c4.52,0,7.45,3.15,7.45,8.2c0,4.82-2.53,9.03-8.52,9.03c-4.41,0-7.61-2.44-8.26-6.65h3.35c0.57,2.26,2.2,3.91,5.02,3.91
				c3.36,0,5.02-2.4,5.02-6.05c0-3.19-1.33-5.64-4.76-5.64c-2.99,0-4.22,1.25-5.1,3.24l-3.08-0.57c0.74-3.24,1.68-10.3,2.04-13.42
				h13.53L1035.09,34.12z"/>
		</g>
	</g>
	<g>
		<line class="st2" x1="108.87" y1="348" x2="108.87" y2="362.81"/>
		<line class="st2" x1="243.63" y1="348" x2="243.63" y2="362.81"/>
		<line class="st2" x1="378.39" y1="348" x2="378.39" y2="362.81"/>
		<line class="st2" x1="513.14" y1="348" x2="513.14" y2="362.81"/>
		<line class="st2" x1="647.9" y1="348" x2="647.9" y2="362.81"/>
		<line class="st2" x1="782.66" y1="348" x2="782.66" y2="362.81"/>
		<line class="st2" x1="917.41" y1="348" x2="917.41" y2="362.81"/>
	</g>
	<g>
		<g>
			<path class="st3" d="M89.52,374.03v21.87c0,1.76,0,3.49,0.04,5.3h-3.11c-0.09-0.5-0.15-1.93-0.16-2.66
				c-0.93,1.96-2.83,3.11-5.9,3.11c-4.83,0-7.79-3.91-7.79-9.63c0-5.78,3.2-10.03,8.39-10.03c3.32,0,4.8,1.34,5.31,2.4v-10.36H89.52
				z M75.95,391.92c0,4.53,2.16,6.99,5.1,6.99c4.39,0,5.35-3.24,5.35-7.35c0-4.17-0.87-6.81-5.1-6.81
				C78,384.74,75.95,387.37,75.95,391.92z"/>
			<path class="st3" d="M111.18,391.79c0,5.41-3.1,9.87-8.84,9.87c-5.38,0-8.63-4.16-8.63-9.8c0-5.54,3.19-9.86,8.84-9.86
				C107.76,381.99,111.18,385.9,111.18,391.79z M97.04,391.82c0,4.12,2.05,7.12,5.43,7.12c3.43,0,5.36-2.85,5.36-7.11
				c0-4.22-1.92-7.13-5.44-7.13C98.89,384.7,97.04,387.54,97.04,391.82z"/>
			<path class="st3" d="M115.4,387.28c0-1.62,0-3.32-0.04-4.84h3.12c0.05,0.56,0.14,1.95,0.13,2.89c0.86-1.68,2.49-3.33,5.46-3.33
				c2.66,0,4.48,1.35,5.2,3.36c1-1.78,2.78-3.36,5.98-3.36c3.05,0,5.92,1.8,5.92,6.88v12.34h-3.19v-11.94
				c0-2.18-0.78-4.47-3.72-4.47c-3.05,0-4.38,2.31-4.38,5.64v10.78h-3.18v-11.84c0-2.41-0.68-4.56-3.63-4.56
				c-3.01,0-4.47,2.44-4.47,6.02v10.39h-3.21V387.28z"/>
			<path class="st3" d="M145.99,401.21v-5.47h3.4v5.47H145.99z"/>
		</g>
	</g>
	<g>
		<g>
			<path class="st3" d="M216.8,395.84c0.54,2.05,2.06,3.26,4.6,3.26c2.76,0,3.84-1.19,3.84-2.9c0-1.76-0.86-2.57-4.44-3.44
				c-5.37-1.31-6.48-2.95-6.48-5.49c0-2.66,1.95-5.28,6.78-5.28c4.84,0,6.82,2.8,7.07,5.42h-3.14c-0.27-1.21-1.19-2.9-4.07-2.9
				c-2.63,0-3.41,1.26-3.41,2.5c0,1.4,0.77,2.1,4.21,2.92c5.69,1.35,6.83,3.25,6.83,6.04c0,3.29-2.61,5.69-7.28,5.69
				c-4.86,0-7.24-2.46-7.72-5.82H216.8z"/>
			<path class="st3" d="M234.68,392.41c0.02,3.82,1.94,6.53,5.13,6.53c2.97,0,3.93-1.53,4.53-2.9h3.26c-0.74,2.4-2.75,5.61-7.9,5.61
				c-5.9,0-8.31-4.8-8.31-9.63c0-5.58,2.81-10.03,8.52-10.03c6.05,0,8.04,4.86,8.04,8.86c0,0.57,0,1.05-0.05,1.56H234.68z
				 M244.67,390.13c-0.04-3.09-1.59-5.57-4.8-5.57c-3.3,0-4.75,2.3-5.08,5.57H244.67z"/>
			<path class="st3" d="M267.56,399.52c0,6.01-2.48,9.44-8.61,9.44c-5.69,0-7.44-3.19-7.78-5.74h3.3c0.55,2.06,2.2,3.15,4.62,3.15
				c4.26,0,5.32-2.7,5.32-7.02v-1.52c-1,2.1-2.72,3.29-5.87,3.29c-4.62,0-7.77-3.77-7.77-9.27c0-6.13,3.57-9.86,8.11-9.86
				c3.58,0,5.1,1.68,5.53,2.93c0.04-0.85,0.11-2.09,0.15-2.49h3.06c-0.01,1.09-0.06,3.62-0.06,5.42V399.52z M254.13,391.71
				c0,3.96,2.06,6.64,5.13,6.64c4.05,0,5.23-2.72,5.23-6.89c0-4.22-1.11-6.72-5.12-6.72C255.9,384.74,254.13,387.65,254.13,391.71z"
				/>
			<path class="st3" d="M272.36,401.21v-5.47h3.4v5.47H272.36z"/>
		</g>
	</g>
	<g>
		<g>
			<path class="st3" d="M355.53,382.44h3.25v-5.54h3.24v5.54h4.14v2.64h-4.14v11c0,1.82,0.44,2.76,2.14,2.76
				c0.45,0,1.12-0.02,1.64-0.16v2.44c-0.8,0.3-1.91,0.35-2.81,0.35c-2.92,0-4.21-1.51-4.21-4.63v-11.75h-3.25V382.44z"/>
			<path class="st3" d="M371.68,392.41c0.02,3.82,1.94,6.53,5.13,6.53c2.97,0,3.93-1.53,4.53-2.9h3.26c-0.74,2.4-2.75,5.61-7.9,5.61
				c-5.9,0-8.31-4.8-8.31-9.63c0-5.58,2.81-10.03,8.52-10.03c6.05,0,8.04,4.86,8.04,8.86c0,0.57,0,1.05-0.05,1.56H371.68z
				 M381.67,390.13c-0.04-3.09-1.59-5.57-4.8-5.57c-3.3,0-4.75,2.3-5.08,5.57H381.67z"/>
			<path class="st3" d="M389.1,387.54c0-2.63-0.02-4.1-0.04-5.1h3.18c0.05,0.53,0.1,2,0.1,3.83c0.98-2.54,3.22-4.18,6.32-4.28v3.23
				c-3.85,0.12-6.32,2.13-6.32,6.87v9.11h-3.24V387.54z"/>
			<path class="st3" d="M401.41,401.21v-5.47h3.4v5.47H401.41z"/>
		</g>
	</g>
	<g>
		<g>
			<path class="st3" d="M491.61,398.51c-0.97,1.97-2.69,3.15-5.94,3.15c-4.26,0-7.8-3.39-7.8-9.62c0-6.31,3.75-10.04,8.26-10.04
				c3.49,0,5.02,1.6,5.47,2.83c-0.01-0.68,0.06-1.62,0.11-2.38h3.07c-0.02,1.95-0.04,3.47-0.04,5.19v20.96h-3.15V398.51z
				 M481.25,391.9c0,3.79,1.65,7.01,5.21,7.01c4.05,0,5.23-2.78,5.23-7.17c0-4.41-1.05-6.97-5.11-6.97
				C483.08,384.77,481.25,387.73,481.25,391.9z"/>
			<path class="st3" d="M515.38,395.74c0,1.83,0.02,4.36,0.04,5.47h-3.15c-0.07-0.49-0.11-1.64-0.12-2.81
				c-0.92,2.08-2.73,3.26-5.68,3.26c-3.16,0-6.2-1.57-6.2-6.87v-12.34h3.22v11.65c0,2.47,0.77,4.74,3.89,4.74
				c3.45,0,4.78-1.91,4.78-6.6v-9.79h3.24V395.74z"/>
			<path class="st3" d="M534.92,397.12c0,1.71,0.15,3.55,0.26,4.09h-3.1c-0.15-0.42-0.26-1.31-0.31-2.46
				c-0.66,1.25-2.15,2.9-5.8,2.9c-4.42,0-6.31-2.88-6.31-5.74c0-4.19,3.29-6.11,8.87-6.11c1.31,0,2.5,0,3.2,0v-1.6
				c0-1.65-0.53-3.68-4.04-3.68c-3.14,0-3.67,1.56-4.01,3.02h-3.14c0.25-2.59,1.85-5.58,7.24-5.56c4.59,0.01,7.13,1.88,7.13,6.15
				V397.12z M531.75,392.06c-0.6,0-2.03,0-3.04,0c-3.74,0-5.75,1.03-5.75,3.68c0,1.95,1.34,3.37,3.65,3.37
				c4.52,0,5.13-3.04,5.13-6.45V392.06z"/>
			<path class="st3" d="M539.79,401.21v-5.47h3.4v5.47H539.79z"/>
		</g>
	</g>
	<g>
		<g>
			<path class="st3" d="M632.4,398.51c-0.97,1.97-2.69,3.15-5.94,3.15c-4.26,0-7.8-3.39-7.8-9.62c0-6.31,3.75-10.04,8.26-10.04
				c3.49,0,5.02,1.6,5.47,2.83c-0.01-0.68,0.06-1.62,0.11-2.38h3.07c-0.02,1.95-0.04,3.47-0.04,5.19v20.96h-3.15V398.51z
				 M622.04,391.9c0,3.79,1.65,7.01,5.21,7.01c4.05,0,5.23-2.78,5.23-7.17c0-4.41-1.05-6.97-5.11-6.97
				C623.87,384.77,622.04,387.73,622.04,391.9z"/>
			<path class="st3" d="M656.17,395.74c0,1.83,0.02,4.36,0.04,5.47h-3.15c-0.07-0.49-0.11-1.64-0.12-2.81
				c-0.92,2.08-2.73,3.26-5.68,3.26c-3.16,0-6.2-1.57-6.2-6.87v-12.34h3.22v11.65c0,2.47,0.77,4.74,3.89,4.74
				c3.45,0,4.78-1.91,4.78-6.6v-9.79h3.24V395.74z"/>
			<path class="st3" d="M661.72,374.03h3.24v4.05h-3.24V374.03z M661.72,382.44h3.24v18.77h-3.24V382.44z"/>
			<path class="st3" d="M669.77,401.21v-5.47h3.4v5.47H669.77z"/>
		</g>
	</g>
	<g>
		<g>
			<path class="st3" d="M754.51,395.84c0.54,2.05,2.06,3.26,4.6,3.26c2.76,0,3.84-1.19,3.84-2.9c0-1.76-0.86-2.57-4.44-3.44
				c-5.37-1.31-6.48-2.95-6.48-5.49c0-2.66,1.95-5.28,6.78-5.28c4.84,0,6.82,2.8,7.07,5.42h-3.14c-0.27-1.21-1.19-2.9-4.07-2.9
				c-2.63,0-3.41,1.26-3.41,2.5c0,1.4,0.77,2.1,4.21,2.92c5.69,1.35,6.83,3.25,6.83,6.04c0,3.29-2.61,5.69-7.28,5.69
				c-4.86,0-7.24-2.46-7.72-5.82H754.51z"/>
			<path class="st3" d="M772.39,392.41c0.02,3.82,1.95,6.53,5.13,6.53c2.97,0,3.93-1.53,4.53-2.9h3.26c-0.74,2.4-2.75,5.61-7.9,5.61
				c-5.9,0-8.31-4.8-8.31-9.63c0-5.58,2.81-10.03,8.52-10.03c6.05,0,8.04,4.86,8.04,8.86c0,0.57,0,1.05-0.05,1.56H772.39z
				 M782.38,390.13c-0.04-3.09-1.59-5.57-4.8-5.57c-3.3,0-4.75,2.3-5.08,5.57H782.38z"/>
			<path class="st3" d="M790.97,382.44c2.64,4.17,3.76,5.96,4.44,7.02h0.04c0.8-1.22,2.37-3.66,4.59-7.02h3.63l-6.35,9.02l6.41,9.75
				h-3.74c-2.29-3.67-3.87-6.2-4.63-7.41h-0.04c-0.63,1.05-2.15,3.55-4.59,7.41h-3.62l6.3-9.38l-6.11-9.4H790.97z"/>
			<path class="st3" d="M805.85,401.21v-5.47h3.4v5.47H805.85z"/>
		</g>
	</g>
	<g>
		<g>
			<path class="st3" d="M886.46,395.84c0.54,2.05,2.06,3.26,4.6,3.26c2.76,0,3.84-1.19,3.84-2.9c0-1.76-0.86-2.57-4.44-3.44
				c-5.37-1.31-6.48-2.95-6.48-5.49c0-2.66,1.95-5.28,6.78-5.28c4.84,0,6.82,2.8,7.07,5.42h-3.14c-0.27-1.21-1.19-2.9-4.07-2.9
				c-2.63,0-3.41,1.26-3.41,2.5c0,1.4,0.77,2.1,4.21,2.92c5.69,1.35,6.83,3.25,6.83,6.04c0,3.29-2.61,5.69-7.28,5.69
				c-4.86,0-7.24-2.46-7.72-5.82H886.46z"/>
			<path class="st3" d="M916.38,397.12c0,1.71,0.15,3.55,0.26,4.09h-3.1c-0.15-0.42-0.26-1.31-0.31-2.46
				c-0.66,1.25-2.15,2.9-5.8,2.9c-4.42,0-6.32-2.88-6.32-5.74c0-4.19,3.29-6.11,8.87-6.11c1.31,0,2.5,0,3.2,0v-1.6
				c0-1.65-0.53-3.68-4.04-3.68c-3.14,0-3.67,1.56-4.01,3.02h-3.14c0.25-2.59,1.85-5.58,7.25-5.56c4.59,0.01,7.13,1.88,7.13,6.15
				V397.12z M913.22,392.06c-0.6,0-2.03,0-3.04,0c-3.74,0-5.75,1.03-5.75,3.68c0,1.95,1.34,3.37,3.65,3.37
				c4.52,0,5.13-3.04,5.13-6.45V392.06z"/>
			<path class="st3" d="M921.98,374.03h3.24v11.08c0.85-1.6,2.57-3.12,5.99-3.12c4.71,0,7.68,3.88,7.68,9.45
				c0,5.71-2.86,10.21-8.17,10.21c-3,0-4.57-1.1-5.52-2.92c0,0.96-0.06,1.97-0.13,2.48h-3.13c0.04-2.1,0.04-4.21,0.04-6.3V374.03z
				 M935.55,391.51c0-4.05-1.85-6.76-5.1-6.76c-3.99,0-5.39,2.67-5.39,7.14c0,3.91,1.25,7.03,5.23,7.03
				C933.61,398.92,935.55,396.08,935.55,391.51z"/>
			<path class="st3" d="M942.39,401.21v-5.47h3.4v5.47H942.39z"/>
		</g>
	</g>
</g>
</svg>
