<?xml version="1.0" encoding="utf-8"?>
<!-- Generator: Adobe Illustrator 24.1.3, SVG Export Plug-In . SVG Version: 6.00 Build 0)  -->
<svg version="1.1" id="Layer_1" xmlns="http://www.w3.org/2000/svg" xmlns:xlink="http://www.w3.org/1999/xlink" x="0px" y="0px"
	 viewBox="0 0 272 37" style="enable-background:new 0 0 272 37;" xml:space="preserve">
<style type="text/css">
	.st0{fill:#FF7676;}
	.st1{fill:#33CCFF;}
</style>
<g>
	<g>
		<path class="st0" d="M9,4.72h4.55l-1.9,9.01H22.9l1.9-9.01h4.57L24.5,27.73h-4.57l2.17-10.23H10.85L8.68,27.73H4.13L9,4.72z"/>
		<path class="st0" d="M49.58,17.61H37.09l-1.32,6.36h14.29l-1.34,3.76H30.52l4.87-23.01h17.62L52.2,8.48H39.04l-1.11,5.36h12.49
			L49.58,17.61z"/>
		<path class="st0" d="M60.02,21.86l-3.64,5.87h-4.89L65.4,4.72h5.8l4.62,23.01h-4.7l-1.15-5.87H60.02z M69.34,18.09
			c-0.98-5.32-1.55-8.41-1.71-10.07H67.6c-0.85,1.77-2.79,5.21-5.59,10.07H69.34z"/>
		<path class="st0" d="M83.45,4.72H88l-4.08,19.25h12.71l-1.4,3.76H78.57L83.45,4.72z"/>
		<path class="st0" d="M104.11,8.48h-7.97l0.81-3.76h20.48l-0.81,3.76h-7.99l-4.03,19.25h-4.55L104.11,8.48z"/>
		<path class="st0" d="M121.08,4.72h4.55l-1.9,9.01h11.25l1.9-9.01h4.57l-4.87,23.01h-4.57l2.17-10.23h-11.25l-2.17,10.23h-4.55
			L121.08,4.72z"/>
	</g>
	<g>
		<path class="st1" d="M170.6,23.19l7.81-0.15c-0.39-0.09-0.86-0.13-1.4-0.13h-0.84h-5.51L170.6,23.19z"/>
		<polygon class="st1" points="153.97,21.8 149.27,21.56 148.84,23.6 153.62,23.51 		"/>
		<polygon class="st1" points="146.97,32.63 151.74,32.63 152.14,30.69 147.39,30.61 		"/>
		<polygon class="st1" points="153.31,25.02 148.58,24.89 147.5,30.07 152.28,30.02 		"/>
		<polygon class="st1" points="156.01,11.92 151.33,11.62 149.61,19.93 154.38,19.79 		"/>
		<path class="st1" d="M176.17,22.91h0.84c0.55,0,1.01,0.04,1.4,0.13l6.12-0.12c-0.5-1.06-1.3-1.56-1.82-1.76
			c2.79-0.91,5.05-2.79,5.06-6.37c0.01-3.94-3.16-6.29-7.75-6.29h-11.02l-2.31,10.93l10.99-0.32L176.17,22.91z M177.31,19.11h-5.86
			l1.43-6.81h5.97c2.62,0,3.89,1.13,3.89,3.03C182.74,18.39,179.99,19.11,177.31,19.11z"/>
		<path class="st1" d="M184.94,25.88l-4.75-0.13c-0.03,0.43-0.1,0.92-0.21,1.46c-0.22,0.97-0.37,1.79-0.47,2.49l4.77-0.06
			c0.11-0.77,0.28-1.63,0.49-2.58C184.85,26.64,184.91,26.25,184.94,25.88z"/>
		<polygon class="st1" points="165.44,25.35 164.49,29.87 169.2,29.82 170.12,25.48 		"/>
		<polygon class="st1" points="170.6,23.19 170.66,22.91 176.17,22.91 166.07,22.41 165.88,23.28 		"/>
		<polygon class="st1" points="163.9,32.63 168.6,32.63 168.95,31 164.27,30.91 		"/>
		<path class="st1" d="M179.4,32.63h4.74c-0.05-0.36-0.07-0.82-0.04-1.36l-4.76-0.09C179.32,31.76,179.34,32.22,179.4,32.63z"/>
		<polygon class="st1" points="206.45,26.47 191.06,26.05 188.92,29.59 194.14,29.53 195.52,27.3 		"/>
		<polygon class="st1" points="207.65,32.63 212.59,32.63 212.42,31.78 207.47,31.69 		"/>
		<polygon class="st1" points="187.08,32.63 192.22,32.63 192.96,31.43 187.86,31.34 		"/>
		<path class="st1" d="M198.39,22.03c2.93-5.09,4.69-8.2,5.58-10.06h0.03c0.17,1.74,0.76,4.98,1.79,10.56l0.65,3.94l0.57,2.9
			l4.9-0.06l-4.18-20.81h-6.08l-8.62,14.26l12.75-0.24L198.39,22.03z"/>
		<path class="st1" d="M238.47,25.15h-5.1c-1.09,2.19-2.53,3.51-4.66,3.97l7.63-0.09C237.25,27.92,237.96,26.61,238.47,25.15z"/>
		<path class="st1" d="M226.36,33.14c2.18,0,4.06-0.35,5.67-1l-11.37-0.21C222.2,32.71,224.09,33.14,226.36,33.14z"/>
		<path class="st1" d="M220.84,22.41c0-5.03,2.7-10.59,8.34-10.59c3.99,0,5.31,2.61,5.57,4.56h5.1c-0.34-4.96-4.03-8.38-10.26-8.38
			c-8.88,0-13.89,7.2-13.89,14.62c0,2.6,0.61,4.88,1.85,6.64l7.71-0.09C222.06,28.51,220.84,25.77,220.84,22.41z"/>
		<path class="st1" d="M247.66,24.35l4.23-2.87l4.64,7.32l5.46-0.06l-6.42-9.84L269,8.51h-6.06c-5.3,4.14-10.12,7.71-14.21,10.89
			l2.29-10.89h-4.7l-4.35,20.46l4.74-0.06L247.66,24.35z"/>
		<polygon class="st1" points="258.95,32.63 264.52,32.63 261.98,28.74 		"/>
		<polygon class="st1" points="241.19,32.63 245.93,32.63 245.98,32.39 241.26,32.31 		"/>
		<polygon class="st1" points="156.07,11.59 156.01,11.92 164.34,12.45 165.19,8.51 127.52,10.11 151.33,11.62 151.4,11.29 		"/>
		<polygon class="st1" points="156.07,11.59 151.4,11.29 151.33,11.62 156.01,11.92 		"/>
		<path class="st1" d="M170.12,25.48l10.07,0.28c0.1-1.53-0.38-2.4-1.78-2.71l-7.81,0.15L170.12,25.48z"/>
		<path class="st1" d="M184.94,25.88l6.12,0.17l1.98-3.28l-8.51,0.16C184.87,23.64,185.06,24.6,184.94,25.88z"/>
		<polygon class="st1" points="165.88,23.28 153.62,23.51 153.31,25.02 165.44,25.35 		"/>
		<polygon class="st1" points="120.89,24.13 148.58,24.89 148.84,23.6 		"/>
		<polygon class="st1" points="128.84,20.54 149.27,21.56 149.61,19.93 		"/>
		<polygon class="st1" points="166.07,22.41 166.7,19.43 154.38,19.79 153.97,21.8 		"/>
		<polygon class="st1" points="129.52,30.28 147.39,30.61 147.5,30.07 		"/>
		<polygon class="st1" points="194.14,29.53 192.96,31.43 207.47,31.69 207.02,29.38 		"/>
		<path class="st1" d="M236.33,29.04c-1.11,1.34-2.54,2.4-4.29,3.1l9.22,0.17l0.71-3.34L236.33,29.04z"/>
		<path class="st1" d="M184.27,29.64c-0.09,0.61-0.14,1.15-0.17,1.63l3.76,0.07l1.06-1.75L184.27,29.64z"/>
		<path class="st1" d="M228.7,29.12l-3.43,0.04c0.48,0.1,1,0.15,1.56,0.15C227.51,29.31,228.13,29.25,228.7,29.12z"/>
		<path class="st1" d="M217.55,29.25l-5.63,0.07l0.49,2.46l8.25,0.15C219.37,31.28,218.34,30.37,217.55,29.25z"/>
		<path class="st1" d="M169.2,29.82L168.95,31l10.4,0.19c0.02-0.43,0.07-0.92,0.15-1.49L169.2,29.82z"/>
		<polygon class="st1" points="261.98,28.74 261.98,28.74 261.98,28.74 		"/>
		<polygon class="st1" points="152.28,30.02 152.14,30.69 164.27,30.91 164.49,29.87 		"/>
		<polygon class="st1" points="246.71,28.91 245.98,32.39 258.95,32.63 256.53,28.8 		"/>
	</g>
</g>
</svg>
