<?xml version="1.0" encoding="utf-8"?>
<!-- Generator: Adobe Illustrator 24.1.3, SVG Export Plug-In . SVG Version: 6.00 Build 0)  -->
<svg version="1.1" id="Layer_1" xmlns="http://www.w3.org/2000/svg" xmlns:xlink="http://www.w3.org/1999/xlink" x="0px" y="0px"
	 viewBox="0 0 100 100" style="enable-background:new 0 0 100 100;" xml:space="preserve">
<style type="text/css">
	.st0{fill:#777777;}
	.st1{fill:none;stroke:#777777;stroke-width:2.1203;stroke-miterlimit:10;}
</style>
<g>
	<g>
		<g>
			<path class="st0" d="M30.35,27.35c-2.3,2.78-3.41,7.5-3.95,13.21c1.61,1.72,4.12,4.63,6.88,5.58c2.93,1.01,8.05,1.51,10.67,0.68
				c2.62-0.83,2.17-3.1,1.03-7.87c-1.04-4.37-4.14-11.17-8.15-16.74C34.36,23.29,32.21,25.1,30.35,27.35z"/>
		</g>
		<g>
			<path class="st0" d="M36.84,67.53c0.37-5.27,1.01-8.47,2.98-11.29c1.97-2.82,4.53-2.84,5.91-1.86c1.38,0.98,1.29,2.03,1.58,3.94
				c0.28,1.9,2.17,3.96,2.17,3.96s0.75,0.05,3.46,0.53c0.43-4.75,0.93-9.26,1.33-10.13c0.92-1.96,1.83-1.22,5.68-2.24
				c3.85-1.02,7.8-3.1,11.04-6.89c3.24-3.8,3.88-9.4,2.32-10.92s-10.2-2.96-11.64-3.28c-1.44-0.32-0.8-1.12-2.2-2.76
				c-1.4-1.64-11.28-5.04-16.52-5.4c-1.24-0.08-2.41,0-3.53,0.22c1.63,2.39,4,6.05,5.32,9.02c2.14,4.84,3.93,11.53,3.81,14.58
				c-0.13,3.05-1.77,4.59-7.62,4.87c-5.85,0.28-10.87-2.17-12.81-3.96c-0.39-0.36-1.1-1.01-1.97-1.82
				c-0.07,1.28-0.12,2.59-0.16,3.93c-0.24,9-7.04,14.8-10.76,17.95c-1.45,1.23-3.3,5.02-5.02,9.18c4,6.62,9.58,12.18,16.22,16.16
				c0.45-4.62,1.01-9.27,1.57-11.45C29.32,74.75,33.14,70.05,36.84,67.53z M54.7,31.66c0.85,0,1.53,0.69,1.53,1.53
				c0,0.85-0.69,1.53-1.53,1.53c-0.85,0-1.53-0.69-1.53-1.53C53.17,32.35,53.86,31.66,54.7,31.66z"/>
		</g>
		<g>
			<path class="st0" d="M50.64,89.87c1.49-0.81,4.44-1.66,7.87-3.03c3.58,0.13,5.02-1.59,5.65-2.8c0.63-1.21,0.98-1.54,1.97-2.86
				c0.98-1.33-0.73-2.38-2.02-3.72c-1.29-1.34-2.88-3.2-3.58-5.98c-0.71-2.77-2.04-3.35-4.21-4.69c-2.17-1.34-7.64-1.84-7.64-1.84
				s-2.09-2.14-2.8-4.16c-0.71-2.02-0.53-3.83-1.46-4.19c-0.93-0.35-3.23,1.08-3.98,3.93c-0.76,2.85-1.16,8.83-1.16,8.83
				s-3.83,1.82-6.41,5.98c-2.57,4.16-3.23,7.16-3.83,16.01c-0.03,0.46-0.07,0.9-0.11,1.34c6.21,3.23,13.22,5.12,20.66,5.28
				C49.5,91.29,49.47,90.51,50.64,89.87z M56.05,72.35c0.84,0,1.51,0.68,1.51,1.51c0,0.84-0.68,1.51-1.51,1.51
				c-0.84,0-1.51-0.68-1.51-1.51C54.54,73.03,55.22,72.35,56.05,72.35z"/>
		</g>
	</g>
	<circle class="st1" cx="50.65" cy="50.8" r="47.2"/>
</g>
</svg>
