<?xml version="1.0" encoding="utf-8"?>
<!-- Generator: Adobe Illustrator 24.1.3, SVG Export Plug-In . SVG Version: 6.00 Build 0)  -->
<svg version="1.1" id="Layer_1" xmlns="http://www.w3.org/2000/svg" xmlns:xlink="http://www.w3.org/1999/xlink" x="0px" y="0px"
	 viewBox="0 0 100 100" style="enable-background:new 0 0 100 100;" xml:space="preserve">
<style type="text/css">
	.st0{fill:#777777;}
	.st1{fill:none;stroke:#777777;stroke-width:2.1207;stroke-miterlimit:10;}
</style>
<g>
	<g>
		<path class="st0" d="M49.79,97.76c14.26,0,27.04-6.32,35.7-16.32c-8.67-4.67-18.55-7.52-20.6-7.97c-2.59-0.57-4.82-1.66-4.98-4.05
			c-0.16-2.39,2.11-7.33,4.05-12.15c1.94-4.82,3.6-17.78,3.28-24.66c-0.32-6.88-2.83-13.16-11.05-15.87s-15.95-0.53-20.98,3.93
			c-5.02,4.45-4.54,13-4.25,15.83c0.28,2.83,0.08,4.37-0.32,5.67c-0.4,1.3-0.16,4.9,0.57,7.57c0.73,2.67,4.49,12.11,5.67,16.93
			c1.17,4.82-1.98,5.99-5.59,7.13c-3,0.94-8.53,2.87-17.7,7.04C22.24,91.18,35.25,97.76,49.79,97.76z"/>
	</g>
	<circle class="st1" cx="49.79" cy="50.55" r="47.21"/>
</g>
</svg>
