<?xml version="1.0" encoding="utf-8"?>
<!-- Generator: Adobe Illustrator 24.1.3, SVG Export Plug-In . SVG Version: 6.00 Build 0)  -->
<svg version="1.1" id="Layer_1" xmlns="http://www.w3.org/2000/svg" xmlns:xlink="http://www.w3.org/1999/xlink" x="0px" y="0px"
	 viewBox="0 0 100 100" style="enable-background:new 0 0 100 100;" xml:space="preserve">
<style type="text/css">
	.st0{fill:#BF550C;}
	.st1{fill:#C0550C;}
	.st2{fill:#C1560C;}
	.st3{fill:#C2560C;}
	.st4{fill:#C3570B;}
	.st5{fill:#C4570B;}
	.st6{fill:#C5570B;}
	.st7{fill:#C6580B;}
	.st8{fill:#C7580B;}
	.st9{fill:#C8590B;}
	.st10{fill:#C9590A;}
	.st11{fill:#CA5A0A;}
	.st12{fill:#CB5A0A;}
	.st13{fill:#CC5A0A;}
	.st14{fill:#CD5B0A;}
	.st15{fill:#CE5B0A;}
	.st16{fill:#CF5C09;}
	.st17{fill:#D05C09;}
	.st18{fill:#D15C09;}
	.st19{fill:#D25D09;}
	.st20{fill:#D35D09;}
	.st21{fill:#D45E09;}
	.st22{fill:#D55E09;}
	.st23{fill:#D65E08;}
	.st24{fill:#D75F08;}
	.st25{fill:#D85F08;}
	.st26{fill:#D96008;}
	.st27{fill:#DA6008;}
	.st28{fill:#DB6108;}
	.st29{fill:#DC6107;}
	.st30{fill:#DD6107;}
	.st31{fill:#DE6207;}
	.st32{fill:#DF6307;}
	.st33{fill:#E06307;}
	.st34{fill:#E16306;}
	.st35{fill:#E26406;}
	.st36{fill:#E36406;}
	.st37{fill:#E46506;}
	.st38{fill:#E56506;}
	.st39{fill:#E66606;}
	.st40{fill:#E76605;}
	.st41{fill:#E86605;}
	.st42{fill:#E96705;}
	.st43{fill:#EA6705;}
	.st44{fill:#EB6805;}
	.st45{fill:#EC6805;}
	.st46{fill:#ED6805;}
	.st47{fill:#EE6904;}
	.st48{fill:#EF6904;}
	.st49{fill:#F06A04;}
	.st50{fill:#F16A04;}
	.st51{fill:#F26A04;}
	.st52{fill:#F36B04;}
	.st53{fill:#F46B03;}
	.st54{fill:#F56C03;}
	.st55{fill:#F66C03;}
	.st56{fill:#F76D03;}
	.st57{fill:#F86D03;}
	.st58{fill:#F96D03;}
	.st59{fill:#FA6E02;}
	.st60{fill:#FB6E02;}
	.st61{fill:#FC6F02;}
	.st62{fill:#FD6F02;}
</style>
<g>
	<path class="st0" d="M79.3,0H20.7C9.3,0,0,9.3,0,20.7v58.6C0,90.7,9.3,100,20.7,100h58.6c11.4,0,20.7-9.3,20.7-20.7V20.7
		C100,9.3,90.7,0,79.3,0z"/>
	<path class="st1" d="M79.3,100H20.7C9.3,100,0,90.7,0,79.3V20.7C0,9.3,9.3,0,20.7,0h58.6C90.7,0,100,9.3,100,20.7v58.6
		C100,90.7,90.7,100,79.3,100z"/>
	<path class="st2" d="M79.3,99.9H20.7c-11.4,0-20.7-9.3-20.7-20.7V20.7C0.1,9.4,9.4,0.1,20.7,0.1h58.5c11.4,0,20.7,9.3,20.7,20.7
		v58.5C99.9,90.6,90.6,99.9,79.3,99.9z"/>
	<path class="st3" d="M79.2,99.9H20.8c-11.3,0-20.6-9.3-20.6-20.6V20.8C0.1,9.4,9.4,0.1,20.8,0.1h58.5c11.3,0,20.6,9.3,20.6,20.6
		v58.5C99.9,90.6,90.6,99.9,79.2,99.9z"/>
	<path class="st4" d="M79.2,99.8H20.8c-11.3,0-20.6-9.3-20.6-20.6V20.8C0.2,9.5,9.5,0.2,20.8,0.2h58.4c11.3,0,20.6,9.3,20.6,20.6
		v58.4C99.8,90.5,90.5,99.8,79.2,99.8z"/>
	<path class="st5" d="M79.2,99.8H20.8c-11.3,0-20.6-9.3-20.6-20.6V20.8C0.2,9.5,9.5,0.2,20.8,0.2h58.3c11.3,0,20.6,9.3,20.6,20.6
		v58.3C99.8,90.5,90.5,99.8,79.2,99.8z"/>
	<path class="st6" d="M79.1,99.7H20.9c-11.3,0-20.6-9.3-20.6-20.6V20.9C0.3,9.5,9.5,0.3,20.9,0.3h58.3c11.3,0,20.6,9.3,20.6,20.6
		v58.3C99.7,90.5,90.5,99.7,79.1,99.7z"/>
	<path class="st7" d="M79.1,99.7H20.9c-11.3,0-20.6-9.3-20.6-20.6V20.9C0.3,9.6,9.6,0.3,20.9,0.3h58.2c11.3,0,20.6,9.3,20.6,20.6
		v58.2C99.7,90.4,90.4,99.7,79.1,99.7z"/>
	<path class="st8" d="M79.1,99.6H20.9c-11.3,0-20.5-9.2-20.5-20.5V20.9C0.4,9.6,9.6,0.4,20.9,0.4h58.2c11.3,0,20.5,9.2,20.5,20.5
		v58.2C99.6,90.4,90.4,99.6,79.1,99.6z"/>
	<path class="st9" d="M79.1,99.6H20.9c-11.3,0-20.5-9.2-20.5-20.5V20.9C0.4,9.7,9.7,0.4,20.9,0.4h58.1c11.3,0,20.5,9.2,20.5,20.5
		v58.1C99.6,90.3,90.3,99.6,79.1,99.6z"/>
	<path class="st10" d="M79,99.5H21C9.7,99.5,0.5,90.3,0.5,79V21C0.5,9.7,9.7,0.5,21,0.5H79c11.3,0,20.5,9.2,20.5,20.5V79
		C99.5,90.3,90.3,99.5,79,99.5z"/>
	<path class="st11" d="M79,99.5H21C9.7,99.5,0.5,90.3,0.5,79V21C0.5,9.7,9.7,0.5,21,0.5h58c11.3,0,20.5,9.2,20.5,20.5v58
		C99.5,90.3,90.3,99.5,79,99.5z"/>
	<path class="st12" d="M79,99.4H21C9.8,99.4,0.6,90.2,0.6,79V21C0.6,9.8,9.8,0.6,21,0.6h58c11.3,0,20.5,9.2,20.5,20.5v58
		C99.4,90.2,90.2,99.4,79,99.4z"/>
	<path class="st13" d="M79,99.4H21C9.8,99.4,0.6,90.2,0.6,79V21C0.6,9.8,9.8,0.6,21,0.6H79c11.2,0,20.4,9.2,20.4,20.4V79
		C99.4,90.2,90.2,99.4,79,99.4z"/>
	<path class="st14" d="M78.9,99.4H21.1c-11.2,0-20.4-9.2-20.4-20.4V21.1C0.6,9.8,9.8,0.6,21.1,0.6h57.9c11.2,0,20.4,9.2,20.4,20.4
		v57.9C99.4,90.2,90.2,99.4,78.9,99.4z"/>
	<path class="st15" d="M78.9,99.3H21.1c-11.2,0-20.4-9.2-20.4-20.4V21.1C0.7,9.9,9.9,0.7,21.1,0.7h57.8c11.2,0,20.4,9.2,20.4,20.4
		v57.8C99.3,90.1,90.1,99.3,78.9,99.3z"/>
	<path class="st16" d="M78.9,99.3H21.1c-11.2,0-20.4-9.2-20.4-20.4V21.1C0.7,9.9,9.9,0.7,21.1,0.7h57.8c11.2,0,20.4,9.2,20.4,20.4
		v57.8C99.3,90.1,90.1,99.3,78.9,99.3z"/>
	<path class="st17" d="M78.8,99.2H21.2C10,99.2,0.8,90,0.8,78.8V21.2C0.8,10,10,0.8,21.2,0.8h57.7C90,0.8,99.2,10,99.2,21.2v57.7
		C99.2,90,90,99.2,78.8,99.2z"/>
	<path class="st18" d="M78.8,99.2H21.2C10,99.2,0.8,90,0.8,78.8V21.2C0.8,10,10,0.8,21.2,0.8h57.6C90,0.8,99.2,10,99.2,21.2v57.6
		C99.2,90,90,99.2,78.8,99.2z"/>
	<path class="st19" d="M78.8,99.1H21.2C10,99.1,0.9,90,0.9,78.8V21.2C0.9,10,10,0.9,21.2,0.9h57.6C90,0.9,99.1,10,99.1,21.2v57.6
		C99.1,90,90,99.1,78.8,99.1z"/>
	<path class="st20" d="M78.8,99.1H21.2c-11.2,0-20.3-9.1-20.3-20.3V21.2c0-11.2,9.1-20.3,20.3-20.3h57.5c11.2,0,20.3,9.1,20.3,20.3
		v57.5C99.1,89.9,89.9,99.1,78.8,99.1z"/>
	<path class="st21" d="M78.7,99H21.3C10.1,99,1,89.9,1,78.7V21.3C1,10.1,10.1,1,21.3,1h57.5C89.9,1,99,10.1,99,21.3v57.5
		C99,89.9,89.9,99,78.7,99z"/>
	<path class="st22" d="M78.7,99H21.3C10.1,99,1,89.9,1,78.7V21.3C1,10.1,10.1,1,21.3,1h57.4C89.9,1,99,10.1,99,21.3v57.4
		C99,89.9,89.9,99,78.7,99z"/>
	<path class="st23" d="M78.7,98.9H21.3c-11.1,0-20.3-9.1-20.3-20.3V21.3c0-11.1,9.1-20.3,20.3-20.3h57.4c11.1,0,20.3,9.1,20.3,20.3
		v57.4C98.9,89.8,89.8,98.9,78.7,98.9z"/>
	<path class="st24" d="M78.7,98.9H21.3c-11.1,0-20.2-9.1-20.2-20.2V21.3c0-11.1,9.1-20.2,20.2-20.2h57.3c11.1,0,20.2,9.1,20.2,20.2
		v57.3C98.9,89.8,89.8,98.9,78.7,98.9z"/>
	<path class="st25" d="M78.6,98.8H21.4c-11.1,0-20.2-9.1-20.2-20.2V21.4c0-11.1,9.1-20.2,20.2-20.2h57.3c11.1,0,20.2,9.1,20.2,20.2
		v57.3C98.8,89.7,89.7,98.8,78.6,98.8z"/>
	<path class="st26" d="M78.6,98.8H21.4c-11.1,0-20.2-9.1-20.2-20.2V21.4c0-11.1,9.1-20.2,20.2-20.2h57.2c11.1,0,20.2,9.1,20.2,20.2
		v57.2C98.8,89.7,89.7,98.8,78.6,98.8z"/>
	<path class="st27" d="M78.6,98.8H21.4c-11.1,0-20.2-9.1-20.2-20.2V21.4c0-11.1,9.1-20.2,20.2-20.2h57.2c11.1,0,20.2,9.1,20.2,20.2
		v57.2C98.8,89.7,89.7,98.8,78.6,98.8z"/>
	<path class="st28" d="M78.5,98.7H21.5c-11.1,0-20.2-9.1-20.2-20.2V21.5c0-11.1,9.1-20.2,20.2-20.2h57.1c11.1,0,20.2,9.1,20.2,20.2
		v57.1C98.7,89.6,89.6,98.7,78.5,98.7z"/>
	<path class="st29" d="M78.5,98.7h-57c-11.1,0-20.1-9.1-20.1-20.1v-57c0-11.1,9.1-20.1,20.1-20.1h57c11.1,0,20.1,9.1,20.1,20.1v57
		C98.7,89.6,89.6,98.7,78.5,98.7z"/>
	<path class="st30" d="M78.5,98.6h-57c-11.1,0-20.1-9.1-20.1-20.1v-57c0-11.1,9.1-20.1,20.1-20.1h57c11.1,0,20.1,9.1,20.1,20.1v57
		C98.6,89.6,89.6,98.6,78.5,98.6z"/>
	<path class="st31" d="M78.5,98.6H21.5c-11,0-20.1-9.1-20.1-20.1V21.5c0-11,9.1-20.1,20.1-20.1h56.9c11,0,20.1,9.1,20.1,20.1v56.9
		C98.6,89.5,89.5,98.6,78.5,98.6z"/>
	<path class="st31" d="M78.4,98.5H21.6c-11,0-20.1-9.1-20.1-20.1V21.6c0-11,9.1-20.1,20.1-20.1h56.9c11,0,20.1,9.1,20.1,20.1v56.9
		C98.5,89.5,89.5,98.5,78.4,98.5z"/>
	<path class="st32" d="M78.4,98.5H21.6c-11,0-20.1-9-20.1-20.1V21.6c0-11,9-20.1,20.1-20.1h56.8c11,0,20.1,9,20.1,20.1v56.8
		C98.5,89.4,89.4,98.5,78.4,98.5z"/>
	<path class="st33" d="M78.4,98.4H21.6c-11,0-20-9-20-20V21.6c0-11,9-20,20-20h56.8c11,0,20,9,20,20v56.8
		C98.4,89.4,89.4,98.4,78.4,98.4z"/>
	<path class="st34" d="M78.4,98.4H21.6c-11,0-20-9-20-20V21.6c0-11,9-20,20-20h56.7c11,0,20,9,20,20v56.7
		C98.4,89.4,89.4,98.4,78.4,98.4z"/>
	<path class="st35" d="M78.3,98.3H21.7c-11,0-20-9-20-20V21.7c0-11,9-20,20-20h56.7c11,0,20,9,20,20v56.7
		C98.3,89.3,89.3,98.3,78.3,98.3z"/>
	<path class="st36" d="M78.3,98.3H21.7c-11,0-20-9-20-20V21.7c0-11,9-20,20-20h56.6c11,0,20,9,20,20v56.6
		C98.3,89.3,89.3,98.3,78.3,98.3z"/>
	<path class="st37" d="M78.3,98.3H21.7c-11,0-20-9-20-20V21.7c0-11,9-20,20-20h56.6c11,0,20,9,20,20v56.6
		C98.3,89.2,89.2,98.3,78.3,98.3z"/>
	<path class="st38" d="M78.3,98.2H21.7c-11,0-20-9-20-20V21.7c0-11,9-20,20-20h56.5c11,0,20,9,20,20v56.5
		C98.2,89.2,89.2,98.2,78.3,98.2z"/>
	<path class="st39" d="M78.2,98.2H21.8c-10.9,0-19.9-9-19.9-19.9V21.8c0-10.9,9-19.9,19.9-19.9h56.4c10.9,0,19.9,9,19.9,19.9v56.4
		C98.2,89.2,89.2,98.2,78.2,98.2z"/>
	<path class="st40" d="M78.2,98.1H21.8c-10.9,0-19.9-9-19.9-19.9V21.8c0-10.9,9-19.9,19.9-19.9h56.4c10.9,0,19.9,9,19.9,19.9v56.4
		C98.1,89.1,89.1,98.1,78.2,98.1z"/>
	<path class="st41" d="M78.2,98.1H21.8c-10.9,0-19.9-9-19.9-19.9V21.8c0-10.9,9-19.9,19.9-19.9h56.3c10.9,0,19.9,9,19.9,19.9v56.3
		C98.1,89.1,89.1,98.1,78.2,98.1z"/>
	<path class="st42" d="M78.1,98H21.9C10.9,98,2,89.1,2,78.1V21.9C2,10.9,10.9,2,21.9,2h56.3C89.1,2,98,10.9,98,21.9v56.3
		C98,89.1,89.1,98,78.1,98z"/>
	<path class="st43" d="M78.1,98H21.9C11,98,2,89,2,78.1V21.9C2,11,11,2,21.9,2h56.2C89,2,98,11,98,21.9v56.2C98,89,89,98,78.1,98z"
		/>
	<path class="st44" d="M78.1,97.9H21.9C11,97.9,2.1,89,2.1,78.1V21.9C2.1,11,11,2.1,21.9,2.1h56.2C89,2.1,97.9,11,97.9,21.9v56.2
		C97.9,89,89,97.9,78.1,97.9z"/>
	<path class="st45" d="M78.1,97.9H21.9c-10.9,0-19.8-8.9-19.8-19.8V21.9c0-10.9,8.9-19.8,19.8-19.8h56.1c10.9,0,19.8,8.9,19.8,19.8
		v56.1C97.9,88.9,88.9,97.9,78.1,97.9z"/>
	<path class="st46" d="M78,97.8H22C11.1,97.8,2.2,88.9,2.2,78V22C2.2,11.1,11.1,2.2,22,2.2H78c10.9,0,19.8,8.9,19.8,19.8V78
		C97.8,88.9,88.9,97.8,78,97.8z"/>
	<path class="st47" d="M78,97.8H22C11.1,97.8,2.2,88.9,2.2,78V22C2.2,11.1,11.1,2.2,22,2.2h56c10.9,0,19.8,8.9,19.8,19.8v56
		C97.8,88.9,88.9,97.8,78,97.8z"/>
	<path class="st48" d="M78,97.7H22C11.2,97.7,2.3,88.8,2.3,78V22C2.3,11.2,11.2,2.3,22,2.3h56c10.9,0,19.8,8.9,19.8,19.8v56
		C97.7,88.8,88.8,97.7,78,97.7z"/>
	<path class="st49" d="M78,97.7H22C11.2,97.7,2.3,88.8,2.3,78V22C2.3,11.2,11.2,2.3,22,2.3H78c10.8,0,19.7,8.9,19.7,19.7V78
		C97.7,88.8,88.8,97.7,78,97.7z"/>
	<path class="st50" d="M77.9,97.7H22.1c-10.8,0-19.7-8.9-19.7-19.7V22.1c0-10.8,8.9-19.7,19.7-19.7h55.9c10.8,0,19.7,8.9,19.7,19.7
		v55.9C97.7,88.8,88.8,97.7,77.9,97.7z"/>
	<path class="st51" d="M77.9,97.6H22.1c-10.8,0-19.7-8.9-19.7-19.7V22.1c0-10.8,8.9-19.7,19.7-19.7h55.8c10.8,0,19.7,8.9,19.7,19.7
		v55.8C97.6,88.7,88.7,97.6,77.9,97.6z"/>
	<path class="st52" d="M77.9,97.6H22.1c-10.8,0-19.7-8.9-19.7-19.7V22.1c0-10.8,8.9-19.7,19.7-19.7h55.7c10.8,0,19.7,8.9,19.7,19.7
		v55.7C97.6,88.7,88.7,97.6,77.9,97.6z"/>
	<path class="st53" d="M77.8,97.5H22.2c-10.8,0-19.7-8.9-19.7-19.7V22.2c0-10.8,8.9-19.7,19.7-19.7h55.7c10.8,0,19.7,8.9,19.7,19.7
		v55.7C97.5,88.6,88.6,97.5,77.8,97.5z"/>
	<path class="st54" d="M77.8,97.5H22.2c-10.8,0-19.7-8.9-19.7-19.7V22.2c0-10.8,8.9-19.7,19.7-19.7h55.6c10.8,0,19.7,8.9,19.7,19.7
		v55.6C97.5,88.6,88.6,97.5,77.8,97.5z"/>
	<path class="st55" d="M77.8,97.4H22.2c-10.8,0-19.6-8.9-19.6-19.6V22.2c0-10.8,8.9-19.6,19.6-19.6h55.6c10.8,0,19.6,8.9,19.6,19.6
		v55.6C97.4,88.6,88.6,97.4,77.8,97.4z"/>
	<path class="st56" d="M77.8,97.4H22.2c-10.8,0-19.6-8.8-19.6-19.6V22.2c0-10.8,8.8-19.6,19.6-19.6h55.5c10.8,0,19.6,8.8,19.6,19.6
		v55.5C97.4,88.5,88.5,97.4,77.8,97.4z"/>
	<path class="st57" d="M77.7,97.3H22.3c-10.8,0-19.6-8.8-19.6-19.6V22.3c0-10.8,8.8-19.6,19.6-19.6h55.5c10.8,0,19.6,8.8,19.6,19.6
		v55.5C97.3,88.5,88.5,97.3,77.7,97.3z"/>
	<path class="st58" d="M77.7,97.3H22.3c-10.7,0-19.6-8.8-19.6-19.6V22.3c0-10.7,8.8-19.6,19.6-19.6h55.4c10.7,0,19.6,8.8,19.6,19.6
		v55.4C97.3,88.5,88.5,97.3,77.7,97.3z"/>
	<path class="st59" d="M77.7,97.2H22.3c-10.7,0-19.6-8.8-19.6-19.6V22.3c0-10.7,8.8-19.6,19.6-19.6h55.4c10.7,0,19.6,8.8,19.6,19.6
		v55.4C97.2,88.4,88.4,97.2,77.7,97.2z"/>
	<path class="st60" d="M77.7,97.2H22.3c-10.7,0-19.5-8.8-19.5-19.5V22.3c0-10.7,8.8-19.5,19.5-19.5h55.3c10.7,0,19.5,8.8,19.5,19.5
		v55.3C97.2,88.4,88.4,97.2,77.7,97.2z"/>
	<path class="st61" d="M77.6,97.1H22.4c-10.7,0-19.5-8.8-19.5-19.5V22.4c0-10.7,8.8-19.5,19.5-19.5h55.3c10.7,0,19.5,8.8,19.5,19.5
		v55.3C97.1,88.3,88.3,97.1,77.6,97.1z"/>
	<path class="st62" d="M77.6,97.1H22.4c-10.7,0-19.5-8.8-19.5-19.5V22.4c0-10.7,8.8-19.5,19.5-19.5h55.2c10.7,0,19.5,8.8,19.5,19.5
		v55.2C97.1,88.3,88.3,97.1,77.6,97.1z"/>
</g>
<g>
	<g>
		<g>
			<path d="M69.2,45.7H30.8L15.5,26.9c8.2-9.6,20.6-15.6,34.5-15.6c13.9,0,26.3,5.9,34.4,15.5L69.2,45.7z"/>
		</g>
	</g>
	<polygon class="st62" points="50,41.8 59.7,41.8 65.1,19.4 	"/>
</g>
</svg>
