<?xml version="1.0" encoding="utf-8"?>
<!-- Generator: Adobe Illustrator 24.1.3, SVG Export Plug-In . SVG Version: 6.00 Build 0)  -->
<svg version="1.1" id="Layer_1" xmlns="http://www.w3.org/2000/svg" xmlns:xlink="http://www.w3.org/1999/xlink" x="0px" y="0px"
	 viewBox="0 0 100 100" style="enable-background:new 0 0 100 100;" xml:space="preserve">
<style type="text/css">
	.st0{fill:#15659B;}
	.st1{fill:#15669C;}
	.st2{fill:#15669D;}
	.st3{fill:#16679E;}
	.st4{fill:#16679F;}
	.st5{fill:#1668A0;}
	.st6{fill:#1668A1;}
	.st7{fill:#1669A2;}
	.st8{fill:#166AA3;}
	.st9{fill:#176AA4;}
	.st10{fill:#176BA5;}
	.st11{fill:#176BA6;}
	.st12{fill:#176CA7;}
	.st13{fill:#176CA8;}
	.st14{fill:#176DA9;}
	.st15{fill:#186DAA;}
	.st16{fill:#186EAB;}
	.st17{fill:#186FAC;}
	.st18{fill:#186FAD;}
	.st19{fill:#1870AE;}
	.st20{fill:#1870AF;}
	.st21{fill:#1971B0;}
	.st22{fill:#1971B1;}
	.st23{fill:#1972B2;}
	.st24{fill:#1973B3;}
	.st25{fill:#1973B4;}
	.st26{fill:#1974B5;}
	.st27{fill:#1A74B6;}
	.st28{fill:#1A75B7;}
	.st29{fill:#1A75B8;}
	.st30{fill:#1A76B9;}
	.st31{fill:#1A76BA;}
	.st32{fill:#1B77BB;}
	.st33{fill:#1B78BC;}
	.st34{fill:#1B78BD;}
	.st35{fill:#1B79BE;}
	.st36{fill:#1B79BF;}
	.st37{fill:#1B7AC0;}
	.st38{fill:#1C7AC1;}
	.st39{fill:#1C7BC2;}
	.st40{fill:#1C7CC3;}
	.st41{fill:#1C7CC4;}
	.st42{fill:#1C7DC5;}
	.st43{fill:#1C7DC6;}
	.st44{fill:#1D7EC6;}
	.st45{fill:#1D7EC7;}
	.st46{fill:#1D7FC8;}
	.st47{fill:#1D7FC9;}
	.st48{fill:#1D80CA;}
	.st49{fill:#1D81CB;}
	.st50{fill:#1E81CC;}
	.st51{fill:#1E82CD;}
	.st52{fill:#1E82CE;}
	.st53{fill:#1E83CF;}
	.st54{fill:#1E83D0;}
	.st55{fill:#1E84D1;}
	.st56{fill:#1F85D2;}
	.st57{fill:#1F85D3;}
	.st58{fill:#1F86D4;}
	.st59{fill:#1F86D5;}
	.st60{fill:#1F87D6;}
	.st61{fill:#2087D7;}
	.st62{fill:#2088D8;}
	.st63{fill:#2088D9;}
	.st64{fill:#2089DA;}
	.st65{fill:#208ADB;}
	.st66{fill:#208ADC;}
	.st67{fill:#218BDD;}
	.st68{fill:#218BDE;}
	.st69{fill:#218CDF;}
	.st70{fill:#218CE0;}
	.st71{fill:#218DE1;}
	.st72{fill:#218EE2;}
	.st73{fill:#228EE3;}
	.st74{fill:#228FE4;}
	.st75{fill:#228FE5;}
	.st76{fill:#2290E6;}
	.st77{fill:#2290E7;}
	.st78{fill:#2291E8;}
	.st79{fill:#2391E9;}
	.st80{fill:#2392EA;}
	.st81{fill:#2393EB;}
	.st82{fill:#2393EC;}
	.st83{fill:#2394ED;}
	.st84{fill:#2394EE;}
	.st85{fill:#2495EF;}
	.st86{fill:#2495F0;}
	.st87{fill:#2496F1;}
</style>
<g>
	<path class="st0" d="M79.3,100H20.7C9.3,100,0,90.7,0,79.3V20.7C0,9.3,9.3,0,20.7,0h58.6C90.7,0,100,9.3,100,20.7v58.6
		C100,90.7,90.7,100,79.3,100z"/>
	<path class="st1" d="M79.3,100H20.7C9.3,100,0,90.7,0,79.3V20.7C0,9.3,9.3,0,20.7,0h58.6C90.7,0,100,9.3,100,20.7v58.6
		C100,90.7,90.7,100,79.3,100z"/>
	<path class="st2" d="M79.3,99.9H20.7c-11.4,0-20.7-9.3-20.7-20.7V20.7C0.1,9.4,9.4,0.1,20.7,0.1h58.5c11.4,0,20.7,9.3,20.7,20.7
		v58.5C99.9,90.6,90.6,99.9,79.3,99.9z"/>
	<path class="st3" d="M79.3,99.9H20.7c-11.4,0-20.6-9.3-20.6-20.6V20.7C0.1,9.4,9.4,0.1,20.7,0.1h58.5c11.4,0,20.6,9.3,20.6,20.6
		v58.5C99.9,90.6,90.6,99.9,79.3,99.9z"/>
	<path class="st4" d="M79.2,99.9H20.8c-11.3,0-20.6-9.3-20.6-20.6V20.8C0.1,9.4,9.4,0.1,20.8,0.1h58.5c11.3,0,20.6,9.3,20.6,20.6
		v58.5C99.9,90.6,90.6,99.9,79.2,99.9z"/>
	<path class="st5" d="M79.2,99.8H20.8c-11.3,0-20.6-9.3-20.6-20.6V20.8C0.2,9.4,9.4,0.2,20.8,0.2h58.4c11.3,0,20.6,9.3,20.6,20.6
		v58.4C99.8,90.6,90.6,99.8,79.2,99.8z"/>
	<path class="st6" d="M79.2,99.8H20.8c-11.3,0-20.6-9.3-20.6-20.6V20.8C0.2,9.5,9.5,0.2,20.8,0.2h58.4c11.3,0,20.6,9.3,20.6,20.6
		v58.4C99.8,90.5,90.5,99.8,79.2,99.8z"/>
	<path class="st7" d="M79.2,99.8H20.8c-11.3,0-20.6-9.3-20.6-20.6V20.8C0.2,9.5,9.5,0.2,20.8,0.2h58.3c11.3,0,20.6,9.3,20.6,20.6
		v58.3C99.8,90.5,90.5,99.8,79.2,99.8z"/>
	<path class="st8" d="M79.2,99.7H20.8c-11.3,0-20.6-9.3-20.6-20.6V20.8C0.3,9.5,9.5,0.3,20.8,0.3h58.3c11.3,0,20.6,9.3,20.6,20.6
		v58.3C99.7,90.5,90.5,99.7,79.2,99.7z"/>
	<path class="st9" d="M79.1,99.7H20.9c-11.3,0-20.6-9.3-20.6-20.6V20.9C0.3,9.6,9.6,0.3,20.9,0.3h58.3c11.3,0,20.6,9.3,20.6,20.6
		v58.3C99.7,90.4,90.4,99.7,79.1,99.7z"/>
	<path class="st10" d="M79.1,99.7H20.9c-11.3,0-20.6-9.3-20.6-20.6V20.9C0.3,9.6,9.6,0.3,20.9,0.3h58.2c11.3,0,20.6,9.3,20.6,20.6
		v58.2C99.7,90.4,90.4,99.7,79.1,99.7z"/>
	<path class="st11" d="M79.1,99.6H20.9c-11.3,0-20.5-9.2-20.5-20.5V20.9C0.4,9.6,9.6,0.4,20.9,0.4h58.2c11.3,0,20.5,9.2,20.5,20.5
		v58.2C99.6,90.4,90.4,99.6,79.1,99.6z"/>
	<path class="st12" d="M79.1,99.6H20.9c-11.3,0-20.5-9.2-20.5-20.5V20.9C0.4,9.6,9.6,0.4,20.9,0.4h58.1c11.3,0,20.5,9.2,20.5,20.5
		v58.1C99.6,90.4,90.4,99.6,79.1,99.6z"/>
	<path class="st13" d="M79.1,99.6H20.9c-11.3,0-20.5-9.2-20.5-20.5V20.9C0.4,9.7,9.7,0.4,20.9,0.4h58.1c11.3,0,20.5,9.2,20.5,20.5
		v58.1C99.6,90.3,90.3,99.6,79.1,99.6z"/>
	<path class="st14" d="M79,99.5H21C9.7,99.5,0.5,90.3,0.5,79V21C0.5,9.7,9.7,0.5,21,0.5H79c11.3,0,20.5,9.2,20.5,20.5V79
		C99.5,90.3,90.3,99.5,79,99.5z"/>
	<path class="st15" d="M79,99.5H21C9.7,99.5,0.5,90.3,0.5,79V21C0.5,9.7,9.7,0.5,21,0.5h58c11.3,0,20.5,9.2,20.5,20.5v58
		C99.5,90.3,90.3,99.5,79,99.5z"/>
	<path class="st16" d="M79,99.5H21C9.7,99.5,0.5,90.3,0.5,79V21C0.5,9.7,9.7,0.5,21,0.5h58c11.3,0,20.5,9.2,20.5,20.5v58
		C99.5,90.3,90.3,99.5,79,99.5z"/>
	<path class="st17" d="M79,99.4H21C9.8,99.4,0.6,90.2,0.6,79V21C0.6,9.8,9.8,0.6,21,0.6h58c11.2,0,20.5,9.2,20.5,20.5v58
		C99.4,90.2,90.2,99.4,79,99.4z"/>
	<path class="st18" d="M79,99.4H21C9.8,99.4,0.6,90.2,0.6,79V21C0.6,9.8,9.8,0.6,21,0.6H79c11.2,0,20.4,9.2,20.4,20.4V79
		C99.4,90.2,90.2,99.4,79,99.4z"/>
	<path class="st19" d="M78.9,99.4H21.1c-11.2,0-20.4-9.2-20.4-20.4V21.1C0.6,9.8,9.8,0.6,21.1,0.6h57.9c11.2,0,20.4,9.2,20.4,20.4
		v57.9C99.4,90.2,90.2,99.4,78.9,99.4z"/>
	<path class="st20" d="M78.9,99.3H21.1c-11.2,0-20.4-9.2-20.4-20.4V21.1C0.7,9.9,9.9,0.7,21.1,0.7h57.8c11.2,0,20.4,9.2,20.4,20.4
		v57.8C99.3,90.1,90.1,99.3,78.9,99.3z"/>
	<path class="st21" d="M78.9,99.3H21.1c-11.2,0-20.4-9.2-20.4-20.4V21.1C0.7,9.9,9.9,0.7,21.1,0.7h57.8c11.2,0,20.4,9.2,20.4,20.4
		v57.8C99.3,90.1,90.1,99.3,78.9,99.3z"/>
	<path class="st22" d="M78.9,99.3H21.1c-11.2,0-20.4-9.2-20.4-20.4V21.1C0.7,9.9,9.9,0.7,21.1,0.7h57.8c11.2,0,20.4,9.2,20.4,20.4
		v57.8C99.3,90.1,90.1,99.3,78.9,99.3z"/>
	<path class="st23" d="M78.9,99.2H21.1c-11.2,0-20.4-9.2-20.4-20.4V21.1C0.8,9.9,9.9,0.8,21.1,0.8h57.7c11.2,0,20.4,9.2,20.4,20.4
		v57.7C99.2,90.1,90.1,99.2,78.9,99.2z"/>
	<path class="st24" d="M78.8,99.2H21.2C10,99.2,0.8,90,0.8,78.8V21.2C0.8,10,10,0.8,21.2,0.8h57.7C90,0.8,99.2,10,99.2,21.2v57.7
		C99.2,90,90,99.2,78.8,99.2z"/>
	<path class="st25" d="M78.8,99.2H21.2C10,99.2,0.8,90,0.8,78.8V21.2C0.8,10,10,0.8,21.2,0.8h57.6C90,0.8,99.2,10,99.2,21.2v57.6
		C99.2,90,90,99.2,78.8,99.2z"/>
	<path class="st26" d="M78.8,99.1H21.2C10,99.1,0.9,90,0.9,78.8V21.2C0.9,10,10,0.9,21.2,0.9h57.6C90,0.9,99.1,10,99.1,21.2v57.6
		C99.1,90,90,99.1,78.8,99.1z"/>
	<path class="st27" d="M78.8,99.1H21.2c-11.2,0-20.3-9.2-20.3-20.3V21.2c0-11.2,9.2-20.3,20.3-20.3h57.6c11.2,0,20.3,9.2,20.3,20.3
		v57.6C99.1,89.9,89.9,99.1,78.8,99.1z"/>
	<path class="st28" d="M78.8,99.1H21.2c-11.2,0-20.3-9.1-20.3-20.3V21.2c0-11.2,9.1-20.3,20.3-20.3h57.5c11.2,0,20.3,9.1,20.3,20.3
		v57.5C99.1,89.9,89.9,99.1,78.8,99.1z"/>
	<path class="st29" d="M78.7,99H21.3C10.1,99,1,89.9,1,78.7V21.3C1,10.1,10.1,1,21.3,1h57.5C89.9,1,99,10.1,99,21.3v57.5
		C99,89.9,89.9,99,78.7,99z"/>
	<path class="st30" d="M78.7,99H21.3C10.1,99,1,89.9,1,78.7V21.3C1,10.1,10.1,1,21.3,1h57.4C89.9,1,99,10.1,99,21.3v57.4
		C99,89.9,89.9,99,78.7,99z"/>
	<path class="st31" d="M78.7,99H21.3C10.2,99,1,89.8,1,78.7V21.3C1,10.2,10.2,1,21.3,1h57.4C89.8,1,99,10.2,99,21.3v57.4
		C99,89.8,89.8,99,78.7,99z"/>
	<path class="st32" d="M78.7,98.9H21.3c-11.1,0-20.3-9.1-20.3-20.3V21.3c0-11.1,9.1-20.3,20.3-20.3h57.4c11.1,0,20.3,9.1,20.3,20.3
		v57.4C98.9,89.8,89.8,98.9,78.7,98.9z"/>
	<path class="st33" d="M78.7,98.9H21.3c-11.1,0-20.2-9.1-20.2-20.2V21.3c0-11.1,9.1-20.2,20.2-20.2h57.3c11.1,0,20.2,9.1,20.2,20.2
		v57.3C98.9,89.8,89.8,98.9,78.7,98.9z"/>
	<path class="st34" d="M78.6,98.9H21.4c-11.1,0-20.2-9.1-20.2-20.2V21.4c0-11.1,9.1-20.2,20.2-20.2h57.3c11.1,0,20.2,9.1,20.2,20.2
		v57.3C98.9,89.8,89.8,98.9,78.6,98.9z"/>
	<path class="st35" d="M78.6,98.8H21.4c-11.1,0-20.2-9.1-20.2-20.2V21.4c0-11.1,9.1-20.2,20.2-20.2h57.2c11.1,0,20.2,9.1,20.2,20.2
		v57.2C98.8,89.7,89.7,98.8,78.6,98.8z"/>
	<path class="st36" d="M78.6,98.8H21.4c-11.1,0-20.2-9.1-20.2-20.2V21.4c0-11.1,9.1-20.2,20.2-20.2h57.2c11.1,0,20.2,9.1,20.2,20.2
		v57.2C98.8,89.7,89.7,98.8,78.6,98.8z"/>
	<path class="st37" d="M78.6,98.8H21.4c-11.1,0-20.2-9.1-20.2-20.2V21.4c0-11.1,9.1-20.2,20.2-20.2h57.2c11.1,0,20.2,9.1,20.2,20.2
		v57.2C98.8,89.7,89.7,98.8,78.6,98.8z"/>
	<path class="st38" d="M78.6,98.7H21.4c-11.1,0-20.2-9.1-20.2-20.2V21.4c0-11.1,9.1-20.2,20.2-20.2h57.1c11.1,0,20.2,9.1,20.2,20.2
		v57.1C98.7,89.6,89.6,98.7,78.6,98.7z"/>
	<path class="st39" d="M78.5,98.7H21.5c-11.1,0-20.2-9.1-20.2-20.2V21.5c0-11.1,9.1-20.2,20.2-20.2h57.1c11.1,0,20.2,9.1,20.2,20.2
		v57.1C98.7,89.6,89.6,98.7,78.5,98.7z"/>
	<path class="st40" d="M78.5,98.7h-57c-11.1,0-20.1-9.1-20.1-20.1v-57c0-11.1,9.1-20.1,20.1-20.1h57c11.1,0,20.1,9.1,20.1,20.1v57
		C98.7,89.6,89.6,98.7,78.5,98.7z"/>
	<path class="st41" d="M78.5,98.6h-57c-11.1,0-20.1-9.1-20.1-20.1v-57c0-11.1,9.1-20.1,20.1-20.1h57c11.1,0,20.1,9.1,20.1,20.1v57
		C98.6,89.6,89.6,98.6,78.5,98.6z"/>
	<path class="st42" d="M78.5,98.6h-57c-11.1,0-20.1-9.1-20.1-20.1v-57c0-11.1,9.1-20.1,20.1-20.1h57c11.1,0,20.1,9.1,20.1,20.1v57
		C98.6,89.5,89.5,98.6,78.5,98.6z"/>
	<path class="st43" d="M78.5,98.6H21.5c-11,0-20.1-9.1-20.1-20.1V21.5c0-11,9.1-20.1,20.1-20.1h56.9c11,0,20.1,9.1,20.1,20.1v56.9
		C98.6,89.5,89.5,98.6,78.5,98.6z"/>
	<path class="st44" d="M78.4,98.5H21.6c-11,0-20.1-9.1-20.1-20.1V21.6c0-11,9.1-20.1,20.1-20.1h56.9c11,0,20.1,9.1,20.1,20.1v56.9
		C98.5,89.5,89.5,98.5,78.4,98.5z"/>
	<path class="st45" d="M78.4,98.5H21.6c-11,0-20.1-9-20.1-20.1V21.6c0-11,9-20.1,20.1-20.1h56.9c11,0,20.1,9,20.1,20.1v56.9
		C98.5,89.5,89.5,98.5,78.4,98.5z"/>
	<path class="st46" d="M78.4,98.5H21.6c-11,0-20.1-9-20.1-20.1V21.6c0-11,9-20.1,20.1-20.1h56.8c11,0,20.1,9,20.1,20.1v56.8
		C98.5,89.4,89.4,98.5,78.4,98.5z"/>
	<path class="st47" d="M78.4,98.4H21.6c-11,0-20-9-20-20V21.6c0-11,9-20,20-20h56.8c11,0,20,9,20,20v56.8
		C98.4,89.4,89.4,98.4,78.4,98.4z"/>
	<path class="st48" d="M78.4,98.4H21.6c-11,0-20-9-20-20V21.6c0-11,9-20,20-20h56.7c11,0,20,9,20,20v56.7
		C98.4,89.4,89.4,98.4,78.4,98.4z"/>
	<path class="st49" d="M78.3,98.4H21.7c-11,0-20-9-20-20V21.7c0-11,9-20,20-20h56.7c11,0,20,9,20,20v56.7
		C98.4,89.3,89.3,98.4,78.3,98.4z"/>
	<path class="st50" d="M78.3,98.3H21.7c-11,0-20-9-20-20V21.7c0-11,9-20,20-20h56.7c11,0,20,9,20,20v56.7
		C98.3,89.3,89.3,98.3,78.3,98.3z"/>
	<path class="st51" d="M78.3,98.3H21.7c-11,0-20-9-20-20V21.7c0-11,9-20,20-20h56.6c11,0,20,9,20,20v56.6
		C98.3,89.3,89.3,98.3,78.3,98.3z"/>
	<path class="st52" d="M78.3,98.3H21.7c-11,0-20-9-20-20V21.7c0-11,9-20,20-20h56.6c11,0,20,9,20,20v56.6
		C98.3,89.3,89.3,98.3,78.3,98.3z"/>
	<path class="st53" d="M78.3,98.2H21.7c-11,0-20-9-20-20V21.7c0-11,9-20,20-20h56.5c11,0,20,9,20,20v56.5
		C98.2,89.2,89.2,98.2,78.3,98.2z"/>
	<path class="st54" d="M78.2,98.2H21.8c-11,0-20-9-20-20V21.8c0-11,9-20,20-20h56.5c11,0,20,9,20,20v56.5
		C98.2,89.2,89.2,98.2,78.2,98.2z"/>
	<path class="st55" d="M78.2,98.2H21.8c-11,0-19.9-9-19.9-19.9V21.8c0-11,9-19.9,19.9-19.9h56.5c11,0,19.9,9,19.9,19.9v56.5
		C98.2,89.2,89.2,98.2,78.2,98.2z"/>
	<path class="st56" d="M78.2,98.1H21.8c-10.9,0-19.9-9-19.9-19.9V21.8c0-10.9,9-19.9,19.9-19.9h56.4c10.9,0,19.9,9,19.9,19.9v56.4
		C98.1,89.2,89.2,98.1,78.2,98.1z"/>
	<path class="st57" d="M78.2,98.1H21.8c-10.9,0-19.9-9-19.9-19.9V21.8c0-10.9,9-19.9,19.9-19.9h56.4c10.9,0,19.9,9,19.9,19.9v56.4
		C98.1,89.1,89.1,98.1,78.2,98.1z"/>
	<path class="st58" d="M78.2,98.1H21.8c-10.9,0-19.9-9-19.9-19.9V21.8c0-10.9,9-19.9,19.9-19.9h56.3c10.9,0,19.9,9,19.9,19.9v56.3
		C98.1,89.1,89.1,98.1,78.2,98.1z"/>
	<path class="st59" d="M78.2,98H21.8C10.9,98,2,89.1,2,78.2V21.8C2,10.9,10.9,2,21.8,2h56.3C89.1,2,98,10.9,98,21.8v56.3
		C98,89.1,89.1,98,78.2,98z"/>
	<path class="st60" d="M78.1,98H21.9C11,98,2,89,2,78.1V21.9C2,11,11,2,21.9,2h56.3C89,2,98,11,98,21.9v56.3C98,89,89,98,78.1,98z"
		/>
	<path class="st61" d="M78.1,98H21.9C11,98,2,89,2,78.1V21.9C2,11,11,2,21.9,2h56.2C89,2,98,11,98,21.9v56.2C98,89,89,98,78.1,98z"
		/>
	<path class="st62" d="M78.1,97.9H21.9C11,97.9,2.1,89,2.1,78.1V21.9C2.1,11,11,2.1,21.9,2.1h56.2C89,2.1,97.9,11,97.9,21.9v56.2
		C97.9,89,89,97.9,78.1,97.9z"/>
	<path class="st63" d="M78.1,97.9H21.9C11,97.9,2.1,89,2.1,78.1V21.9C2.1,11,11,2.1,21.9,2.1h56.1C89,2.1,97.9,11,97.9,21.9v56.1
		C97.9,89,89,97.9,78.1,97.9z"/>
	<path class="st64" d="M78.1,97.9H21.9c-10.9,0-19.8-8.9-19.8-19.8V21.9c0-10.9,8.9-19.8,19.8-19.8h56.1c10.9,0,19.8,8.9,19.8,19.8
		v56.1C97.9,88.9,88.9,97.9,78.1,97.9z"/>
	<path class="st65" d="M78,97.8H22C11.1,97.8,2.2,88.9,2.2,78V22C2.2,11.1,11.1,2.2,22,2.2H78c10.9,0,19.8,8.9,19.8,19.8V78
		C97.8,88.9,88.9,97.8,78,97.8z"/>
	<path class="st66" d="M78,97.8H22C11.1,97.8,2.2,88.9,2.2,78V22C2.2,11.1,11.1,2.2,22,2.2h56c10.9,0,19.8,8.9,19.8,19.8v56
		C97.8,88.9,88.9,97.8,78,97.8z"/>
	<path class="st67" d="M78,97.8H22C11.2,97.8,2.2,88.8,2.2,78V22C2.2,11.2,11.2,2.2,22,2.2h56c10.9,0,19.8,8.9,19.8,19.8v56
		C97.8,88.8,88.8,97.8,78,97.8z"/>
	<path class="st68" d="M78,97.7H22C11.2,97.7,2.3,88.8,2.3,78V22C2.3,11.2,11.2,2.3,22,2.3H78c10.8,0,19.8,8.9,19.8,19.8V78
		C97.7,88.8,88.8,97.7,78,97.7z"/>
	<path class="st69" d="M78,97.7H22C11.2,97.7,2.3,88.8,2.3,78V22C2.3,11.2,11.2,2.3,22,2.3H78c10.8,0,19.7,8.9,19.7,19.7V78
		C97.7,88.8,88.8,97.7,78,97.7z"/>
	<path class="st70" d="M77.9,97.7H22.1c-10.8,0-19.7-8.9-19.7-19.7V22.1c0-10.8,8.9-19.7,19.7-19.7h55.9c10.8,0,19.7,8.9,19.7,19.7
		v55.9C97.7,88.8,88.8,97.7,77.9,97.7z"/>
	<path class="st71" d="M77.9,97.6H22.1c-10.8,0-19.7-8.9-19.7-19.7V22.1c0-10.8,8.9-19.7,19.7-19.7h55.8c10.8,0,19.7,8.9,19.7,19.7
		v55.8C97.6,88.7,88.7,97.6,77.9,97.6z"/>
	<path class="st72" d="M77.9,97.6H22.1c-10.8,0-19.7-8.9-19.7-19.7V22.1c0-10.8,8.9-19.7,19.7-19.7h55.8c10.8,0,19.7,8.9,19.7,19.7
		v55.8C97.6,88.7,88.7,97.6,77.9,97.6z"/>
	<path class="st73" d="M77.9,97.6H22.1c-10.8,0-19.7-8.9-19.7-19.7V22.1c0-10.8,8.9-19.7,19.7-19.7h55.8c10.8,0,19.7,8.9,19.7,19.7
		v55.8C97.6,88.7,88.7,97.6,77.9,97.6z"/>
	<path class="st74" d="M77.9,97.5H22.1c-10.8,0-19.7-8.9-19.7-19.7V22.1c0-10.8,8.9-19.7,19.7-19.7h55.7c10.8,0,19.7,8.9,19.7,19.7
		v55.7C97.5,88.7,88.7,97.5,77.9,97.5z"/>
	<path class="st75" d="M77.8,97.5H22.2c-10.8,0-19.7-8.9-19.7-19.7V22.2c0-10.8,8.9-19.7,19.7-19.7h55.7c10.8,0,19.7,8.9,19.7,19.7
		v55.7C97.5,88.6,88.6,97.5,77.8,97.5z"/>
	<path class="st76" d="M77.8,97.5H22.2c-10.8,0-19.7-8.9-19.7-19.7V22.2c0-10.8,8.9-19.7,19.7-19.7h55.6c10.8,0,19.7,8.9,19.7,19.7
		v55.6C97.5,88.6,88.6,97.5,77.8,97.5z"/>
	<path class="st77" d="M77.8,97.4H22.2c-10.8,0-19.6-8.9-19.6-19.6V22.2c0-10.8,8.9-19.6,19.6-19.6h55.6c10.8,0,19.6,8.9,19.6,19.6
		v55.6C97.4,88.6,88.6,97.4,77.8,97.4z"/>
	<path class="st78" d="M77.8,97.4H22.2c-10.8,0-19.6-8.9-19.6-19.6V22.2c0-10.8,8.9-19.6,19.6-19.6h55.6c10.8,0,19.6,8.9,19.6,19.6
		v55.6C97.4,88.5,88.5,97.4,77.8,97.4z"/>
	<path class="st79" d="M77.8,97.4H22.2c-10.8,0-19.6-8.8-19.6-19.6V22.2c0-10.8,8.8-19.6,19.6-19.6h55.5c10.8,0,19.6,8.8,19.6,19.6
		v55.5C97.4,88.5,88.5,97.4,77.8,97.4z"/>
	<path class="st80" d="M77.7,97.3H22.3c-10.8,0-19.6-8.8-19.6-19.6V22.3c0-10.8,8.8-19.6,19.6-19.6h55.5c10.8,0,19.6,8.8,19.6,19.6
		v55.5C97.3,88.5,88.5,97.3,77.7,97.3z"/>
	<path class="st81" d="M77.7,97.3H22.3c-10.7,0-19.6-8.8-19.6-19.6V22.3c0-10.7,8.8-19.6,19.6-19.6h55.4c10.7,0,19.6,8.8,19.6,19.6
		v55.4C97.3,88.5,88.5,97.3,77.7,97.3z"/>
	<path class="st82" d="M77.7,97.3H22.3c-10.7,0-19.6-8.8-19.6-19.6V22.3c0-10.7,8.8-19.6,19.6-19.6h55.4c10.7,0,19.6,8.8,19.6,19.6
		v55.4C97.3,88.4,88.4,97.3,77.7,97.3z"/>
	<path class="st83" d="M77.7,97.2H22.3c-10.7,0-19.6-8.8-19.6-19.6V22.3c0-10.7,8.8-19.6,19.6-19.6h55.4c10.7,0,19.6,8.8,19.6,19.6
		v55.4C97.2,88.4,88.4,97.2,77.7,97.2z"/>
	<path class="st84" d="M77.7,97.2H22.3c-10.7,0-19.5-8.8-19.5-19.5V22.3c0-10.7,8.8-19.5,19.5-19.5h55.3c10.7,0,19.5,8.8,19.5,19.5
		v55.3C97.2,88.4,88.4,97.2,77.7,97.2z"/>
	<path class="st85" d="M77.6,97.2H22.4c-10.7,0-19.5-8.8-19.5-19.5V22.4c0-10.7,8.8-19.5,19.5-19.5h55.3c10.7,0,19.5,8.8,19.5,19.5
		v55.3C97.2,88.4,88.4,97.2,77.6,97.2z"/>
	<path class="st86" d="M77.6,97.1H22.4c-10.7,0-19.5-8.8-19.5-19.5V22.4c0-10.7,8.8-19.5,19.5-19.5h55.2c10.7,0,19.5,8.8,19.5,19.5
		v55.2C97.1,88.3,88.3,97.1,77.6,97.1z"/>
	<path class="st87" d="M77.6,97.1H22.4c-10.7,0-19.5-8.8-19.5-19.5V22.4c0-10.7,8.8-19.5,19.5-19.5h55.2c10.7,0,19.5,8.8,19.5,19.5
		v55.2C97.1,88.3,88.3,97.1,77.6,97.1z"/>
</g>
<g>
	<g>
		<path d="M48.6,42c5.4,0,11.5,2.5,15.2,6.2c3.7,3.7,7.9,12,10.3,15.2c2.3,3.2,6.3,7.8,5.5,14c-0.8,6.2-6.3,10.1-11,10.7
			c-4.6,0.6-8.1-1.9-12.8-3.2C51,83.6,43,84.1,37.6,86.1s-7.4,2.9-12.1,1.2c-4.7-1.7-7.8-7.1-7.9-10.4c-0.1-3.2,0.2-5.8,3.9-11.3
			s7.4-11.4,9.9-15.1S39.9,42,48.6,42z"/>
		<path d="M15.7,28.3c3.7-0.4,7.3,1.6,10.2,6.1s1.4,10.8-0.8,13.3s-7,4-10.9,2c-3.8-2-7.1-6.6-6.7-12.7C8,31,12.4,28.7,15.7,28.3z"
			/>
		<path d="M41.8,11.8c3.6,0,7.9,2.8,9.9,7.1s1.9,10.6-0.5,14.5s-6.6,6.3-10.4,6.1s-8.5-2.9-10.4-8.9C28.5,24.6,30,11.8,41.8,11.8z"
			/>
		<path d="M73.5,17.9c3.5,1.6,6.8,6.2,6.3,12.1S76,41.2,71.5,43s-9.7,1.4-12.7-2.5s-4.3-9.9-1.3-16C60.4,18.5,67.4,15,73.5,17.9z"/>
		<path d="M91.6,41.6c2.1,1.7,4.1,5.3,3.4,9.2s-3.9,8.6-7.8,9.9s-8.9,1.1-11.2-2.9s-1.7-9.4,1.1-13.1C79.9,41.1,86.8,37.8,91.6,41.6
			z"/>
	</g>
</g>
</svg>
