<?xml version="1.0" encoding="utf-8"?>
<!-- Generator: Adobe Illustrator 24.1.3, SVG Export Plug-In . SVG Version: 6.00 Build 0)  -->
<svg version="1.1" id="Layer_1" xmlns="http://www.w3.org/2000/svg" xmlns:xlink="http://www.w3.org/1999/xlink" x="0px" y="0px"
	 viewBox="0 0 100 100" style="enable-background:new 0 0 100 100;" xml:space="preserve">
<style type="text/css">
	.st0{fill:#50AAF0;}
	.st1{fill:#FFFFFF;}
</style>
<path class="st0" d="M99.99,14.36c0-7.88-6.43-14.33-14.3-14.36C61.8,0.01,37.91,0.02,14.02,0.02C6.35,0.2,0.13,6.45,0.01,14.14
	c0,23.95,0,47.91,0.01,71.87C0.21,93.74,6.58,100,14.35,100h71.28c7.85,0,14.28-6.38,14.35-14.21c0-11.78,0.01-23.56,0.01-35.34
	V14.36z"/>
<path class="st1" d="M84.91,30.74c-1.54,1.67-3.19,3.25-4.99,4.65c-0.52,0.4-0.71,0.83-0.7,1.48c0.14,11.17-3.4,21.04-10.82,29.4
	c-7.24,8.16-16.35,12.94-27.21,14.2c-9.54,1.11-18.49-0.8-26.8-5.65c-0.22-0.13-0.42-0.27-0.64-0.51c8.03,0.79,15.1-1.5,21.64-6.48
	c-1.86-0.27-3.45-0.53-4.97-1.11c-4.06-1.55-6.85-4.37-8.52-8.35c-0.44-1.05-0.41-1.05,0.69-0.97c1.78,0.13,3.56,0.18,5.52-0.44
	c-4.4-1.16-7.9-3.21-10.06-7.12c-1.31-2.38-1.84-4.95-1.82-7.8c2.04,1.01,4.06,1.66,6.31,1.86c-0.32-0.66-0.88-1.01-1.31-1.46
	c-2.69-2.83-4.61-6.03-4.93-10.03c-0.22-2.82,0.49-5.41,1.81-7.87c0.34-0.63,0.56-0.4,0.89-0.02c1.58,1.83,3.29,3.52,5.16,5.04
	c5.92,4.81,12.67,7.85,20.14,9.33c1.44,0.28,2.89,0.48,4.34,0.66c0.74,0.09,0.81-0.17,0.71-0.8c-1.13-6.96,2.3-13.41,8.64-16.32
	c5.47-2.51,12.17-1.41,16.49,2.77c0.56,0.54,1.02,0.61,1.72,0.38c2.84-0.93,5.62-2,8.57-3.46c-1.02,3.79-3.58,6.07-6.47,8.36
	c2.37-0.25,4.41-0.83,6.45-1.47c0.56-0.17,1.08-0.52,1.7-0.47v-0.01c0.01-0.02,0.01-0.04,0.02-0.06c0.04,0.02,0.04,0.04,0.04,0.07
	c-0.02,0-0.04,0-0.06,0C86.18,29.43,85.52,30.08,84.91,30.74z"/>
</svg>
